<svg width="88" height="87" viewBox="0 0 88 87" fill="none" xmlns="http://www.w3.org/2000/svg">
<g filter="url(#filter0_d_250_3067)">
<path d="M35.6473 30.6919C34.3993 31.9404 33.9 33.376 36.6458 36.1225C39.3916 38.8691 44.2592 41.7404 45.4449 40.492C46.6306 39.2436 43.7599 34.3748 41.0766 31.6907C38.3932 29.0066 36.8954 29.4435 35.6473 30.6919Z" fill="#CCCCCC"/>
<path d="M36.7082 31.1893C36.5834 31.0645 36.3338 31.0645 36.1466 31.1893C36.0218 31.3142 36.0218 31.5639 36.1466 31.7511L51.5605 47.7308C51.6853 47.9181 51.935 47.9181 52.1222 47.7308L52.6838 47.169C52.8086 47.0442 52.8086 46.7945 52.6838 46.6073L36.7082 31.1893Z" fill="#E6E6E6"/>
<path d="M35.6475 30.6922C34.3994 31.9406 33.9001 33.3763 36.6459 36.1228C39.3917 38.8693 44.2593 41.7407 45.445 40.4922C46.6307 39.2438 43.7601 34.375 41.0767 31.6909C38.3933 29.0068 36.8956 29.4438 35.6475 30.6922Z" fill="#B3B3B3"/>
<path d="M35.7084 30.6256L45.5059 40.4257C46.6292 39.1773 43.7586 34.3084 41.0752 31.6868C38.3918 29.0027 36.8941 29.4396 35.7084 30.6256Z" fill="#CCCCCC"/>
<path d="M36.7081 31.1896C36.5833 31.0647 36.3337 31.0647 36.1465 31.1896C36.0217 31.3144 36.0217 31.5641 36.1465 31.7514L51.5604 47.7311C51.6852 47.9183 51.9348 47.9183 52.1221 47.7311L52.6837 47.1693C52.8085 47.0444 52.8085 46.7948 52.6837 46.6075L36.7081 31.1896Z" fill="#CCCCCC"/>
<path d="M39.9535 27.0671C38.5181 28.0658 37.8317 29.4391 40.0159 32.5601C42.2 35.6811 46.5059 39.3639 47.9412 38.3652C49.3766 37.3665 47.3172 32.0607 45.133 28.9397C42.9489 25.8187 41.3264 26.0683 39.9535 27.0671Z" fill="#CCCCCC"/>
<path d="M40.8928 27.6926C40.768 27.5054 40.5184 27.5054 40.3312 27.6302C40.1439 27.7551 40.1439 28.0047 40.2687 28.1296L52.6873 46.4813C52.8121 46.6685 53.0617 46.731 53.2489 46.6061L53.9354 46.1068C54.1226 45.9819 54.1226 45.7322 53.9978 45.545L40.8928 27.6926Z" fill="#E6E6E6"/>
<path d="M39.9535 27.0671C38.5181 28.0658 37.8317 29.4391 40.0159 32.5601C42.2 35.6811 46.5059 39.3639 47.9412 38.3652C49.3766 37.3665 47.3172 32.0607 45.133 28.9397C42.9489 25.8187 41.3264 26.0683 39.9535 27.0671Z" fill="#B3B3B3"/>
<path d="M39.9535 27.0056L47.9413 38.3661C49.2518 37.305 47.2548 32.0617 45.0707 28.9406C42.8865 25.882 41.3888 26.0693 39.9535 27.0056Z" fill="#CCCCCC"/>
<path d="M40.8928 27.6926C40.768 27.5054 40.5184 27.5054 40.3312 27.6302C40.1439 27.7551 40.1439 28.0047 40.2687 28.1296L52.6873 46.4813C52.8121 46.6685 53.0617 46.731 53.2489 46.6061L53.9354 46.1068C54.1226 45.9819 54.1226 45.7322 53.9978 45.545L40.8928 27.6926Z" fill="#E6E6E6"/>
<path d="M45.196 24.3846C43.6359 25.1336 42.6374 26.3196 44.2599 29.8152C45.8824 33.3107 49.4395 37.6802 50.9996 36.9936C52.5597 36.2445 51.4988 30.6891 49.8763 27.1935C48.2538 23.698 46.7561 23.6355 45.196 24.3846Z" fill="#CCCCCC"/>
<path d="M46.0078 25.1968C45.9454 25.0095 45.6958 24.9471 45.5086 25.0095C45.259 25.0719 45.1966 25.3216 45.259 25.5089L54.2452 45.7956C54.3076 45.9829 54.5573 46.1077 54.7445 45.9829L55.4933 45.6083C55.6805 45.5459 55.8053 45.2962 55.6805 45.109L46.0078 25.1968Z" fill="#E6E6E6"/>
<path d="M45.196 24.3846C43.6359 25.1336 42.6374 26.3196 44.2599 29.8152C45.8824 33.3107 49.4395 37.6802 50.9996 36.9936C52.5597 36.2445 51.4988 30.6891 49.8763 27.1935C48.2538 23.698 46.7561 23.6355 45.196 24.3846Z" fill="#B3B3B3"/>
<path d="M45.194 24.3837L50.9976 36.9303C52.4953 36.1188 51.4344 30.6258 49.8743 27.1926C48.3142 23.7595 46.7541 23.6347 45.194 24.3837Z" fill="#CCCCCC"/>
<path d="M46.0078 25.1968C45.9454 25.0095 45.6958 24.9471 45.5086 25.0095C45.259 25.0719 45.1966 25.3216 45.259 25.5089L54.2452 45.7956C54.3076 45.9829 54.5573 46.1077 54.7445 45.9829L55.4933 45.6083C55.6805 45.5459 55.8053 45.2962 55.6805 45.109L46.0078 25.1968Z" fill="#E6E6E6"/>
<path d="M32.0918 34.9345C33.0903 33.4988 34.4632 32.8122 37.5834 34.9969C40.7036 37.1817 44.3855 41.4887 43.387 42.9244C42.3886 44.36 37.0842 42.3002 33.9639 40.1154C30.8437 37.9307 31.0933 36.3702 32.0918 34.9345Z" fill="#CCCCCC"/>
<path d="M32.7153 35.869C32.5281 35.7441 32.5281 35.4945 32.6529 35.3072C32.7777 35.1199 33.0273 35.1199 33.2145 35.1824L51.5615 47.6041C51.7487 47.7289 51.8111 47.9786 51.6863 48.1659L51.1871 48.8525C51.0623 49.0398 50.8127 49.0398 50.6254 48.9149L32.7153 35.869Z" fill="#E6E6E6"/>
<path d="M32.0918 34.9345C33.0903 33.4988 34.4632 32.8122 37.5834 34.9969C40.7036 37.1817 44.3855 41.4887 43.387 42.9244C42.3886 44.36 37.0842 42.3002 33.9639 40.1154C30.8437 37.9307 31.0933 36.3702 32.0918 34.9345Z" fill="#CCCCCC"/>
<path d="M32.0279 34.9949L43.3855 42.9223C42.3246 44.2331 37.0826 42.2357 33.9624 40.051C30.8422 37.9286 31.0918 36.3681 32.0279 34.9949Z" fill="#B3B3B3"/>
<path d="M32.7154 35.869C32.5282 35.7441 32.5282 35.4945 32.653 35.3072C32.7778 35.1199 33.0275 35.1199 33.2147 35.1824L51.5616 47.6041C51.7488 47.7289 51.8112 47.9786 51.6864 48.1659L51.1872 48.8525C51.0624 49.0398 50.8128 49.0398 50.6256 48.9149L32.7154 35.869Z" fill="#E6E6E6"/>
<path d="M29.406 40.1768C30.1548 38.6163 31.3405 37.6175 34.8352 39.2405C38.3298 40.8634 42.6982 44.4214 42.0117 45.9819C41.2629 47.5424 35.7088 46.4813 32.2142 44.8583C28.7195 43.2978 28.6571 41.7373 29.406 40.1768Z" fill="#CCCCCC"/>
<path d="M30.2173 40.9891C30.0301 40.9267 29.9677 40.677 30.0301 40.4897C30.0925 40.3025 30.3421 40.24 30.5294 40.3025L50.8109 49.291C50.9981 49.3535 51.1229 49.6031 50.9981 49.7904L50.6236 50.5395C50.5612 50.7267 50.3116 50.8516 50.1244 50.7267L30.2173 40.9891Z" fill="#E6E6E6"/>
<path d="M29.4062 40.1765C30.1551 38.616 31.3408 37.6173 34.8354 39.2402C38.3301 40.8632 42.6984 44.4211 42.012 45.9817C41.2631 47.5422 35.7091 46.481 32.2144 44.8581C28.7198 43.2976 28.6574 41.737 29.4062 40.1765Z" fill="#CCCCCC"/>
<path d="M29.3448 40.2402L41.8882 46.0454C41.1393 47.5435 35.5853 46.4823 32.1531 44.9218C28.7208 43.2989 28.6584 41.7383 29.3448 40.2402Z" fill="#B3B3B3"/>
<path d="M30.2176 40.9888C30.0304 40.9264 29.968 40.6767 30.0304 40.4895C30.0928 40.3022 30.3424 40.2398 30.5296 40.3022L50.8111 49.2908C50.9983 49.3532 51.1231 49.6029 50.9983 49.7902L50.6239 50.5392C50.5615 50.7265 50.3119 50.8513 50.1247 50.7265L30.2176 40.9888Z" fill="#E6E6E6"/>
<path d="M53.8066 41.9243L46.8797 48.853C46.6301 49.1026 46.6301 49.5396 46.8797 49.8517L49.2511 52.2237C51.3104 54.2836 54.6803 54.6581 56.9269 52.7855C59.5479 50.6632 59.6727 46.7931 57.3637 44.4835L54.8051 41.9243C54.5555 41.6122 54.1187 41.6122 53.8066 41.9243Z" fill="#E6E6E6"/>
<path d="M51.8716 38.3661C48.8138 40.9877 45.9432 43.7967 43.3222 46.9177C43.135 47.1674 43.135 47.5419 43.3846 47.7292C43.6342 47.9165 44.0086 47.9165 44.1958 47.6668C46.7544 44.6706 49.5626 41.8616 52.5581 39.3024C52.8077 39.1151 52.8701 38.7406 52.6205 38.4909C52.4957 38.1788 52.1212 38.1788 51.8716 38.3661Z" fill="#CCCCCC"/>
<path d="M36.7086 31.1877C36.5838 31.0628 36.3966 31.0628 36.2094 31.1252L52.4346 47.3546L52.6842 47.1049C52.809 46.9801 52.809 46.7304 52.6842 46.5431L36.7086 31.1877Z" fill="#E6E6E6"/>
<path d="M51.8721 38.3661C50.3744 39.6145 48.8767 40.9877 47.5038 42.361L48.3774 43.2349C49.7504 41.8616 51.1857 40.5508 52.6834 39.3024C52.933 39.1151 52.9954 38.7406 52.7458 38.4909C52.4962 38.1788 52.1217 38.1788 51.8721 38.3661Z" fill="#E6E6E6"/>
<path d="M46.8797 48.8531C46.6301 49.1028 46.6301 49.5398 46.8797 49.8519L49.2511 52.2239C51.3105 54.2838 54.6803 54.6583 56.9269 52.7857C57.1141 52.6608 57.2389 52.536 57.3637 52.3487L50.4368 45.2952L46.8797 48.8531Z" fill="#CCCCCC"/>
<path d="M53.8066 41.9243L46.8797 48.853C46.6301 49.1026 46.6301 49.5396 46.8797 49.8517L47.7534 50.7256L55.6788 42.7982L54.8051 41.9243C54.5555 41.6122 54.1187 41.6122 53.8066 41.9243Z" fill="#ED7161"/>
<path d="M46.8797 48.8535C46.6301 49.1032 46.6301 49.5401 46.8797 49.8522L47.7534 50.7261L51.7473 46.7312L50.3744 45.3579L46.8797 48.8535Z" fill="#D56455"/>
</g>
<defs>
<filter id="filter0_d_250_3067" x="0.765808" y="0.283278" width="86.4684" height="86.4686" filterUnits="userSpaceOnUse" color-interpolation-filters="sRGB">
<feFlood flood-opacity="0" result="BackgroundImageFix"/>
<feColorMatrix in="SourceAlpha" type="matrix" values="0 0 0 0 0 0 0 0 0 0 0 0 0 0 0 0 0 0 127 0" result="hardAlpha"/>
<feOffset dy="4.51747"/>
<feGaussianBlur stdDeviation="14.1171"/>
<feComposite in2="hardAlpha" operator="out"/>
<feColorMatrix type="matrix" values="0 0 0 0 0 0 0 0 0 0 0 0 0 0 0 0 0 0 0.75 0"/>
<feBlend mode="normal" in2="BackgroundImageFix" result="effect1_dropShadow_250_3067"/>
<feBlend mode="normal" in="SourceGraphic" in2="effect1_dropShadow_250_3067" result="shape"/>
</filter>
</defs>
</svg>