<svg width="88" height="87" viewBox="0 0 88 87" fill="none" xmlns="http://www.w3.org/2000/svg">
<g filter="url(#filter0_d_250_3120)">
<path d="M36.6074 40.6536C37.563 41.0951 38.5461 41.4745 39.5516 41.79C39.7353 41.8477 39.9316 41.7482 39.9912 41.565C40.7134 39.3444 41.9546 37.3096 43.6536 35.6106C46.4887 32.7755 50.2582 31.2141 54.2677 31.2141C54.9943 31.2141 55.713 31.2661 56.4197 31.3673C56.6372 31.3984 56.7895 31.1582 56.6718 30.9728C54.6889 27.8487 51.583 25.5078 47.9216 24.5184C47.8282 24.4932 47.728 24.508 47.6457 24.5588C46.0106 25.5678 44.481 26.7737 43.0883 28.1665C39.7141 31.5406 37.4313 35.7146 36.4132 40.2603C36.3774 40.4204 36.4585 40.5848 36.6074 40.6536Z" fill="url(#paint0_radial_250_3120)"/>
<path d="M41.0054 41.8063C40.9399 42.0026 41.0584 42.212 41.2597 42.2596C43.1276 42.7015 45.0601 42.9292 47.0277 42.9292C51.0274 42.9292 54.8819 41.9891 58.3413 40.216C58.7407 40.0113 58.9947 39.6042 58.9997 39.1554C59.0003 39.1037 59.0006 39.0519 59.0006 39.0001C59.0006 36.8158 58.5329 34.7412 57.6934 32.8694C57.6284 32.7245 57.4968 32.621 57.3419 32.5862C56.3528 32.3632 55.3247 32.2449 54.2692 32.2449C48.1041 32.2449 42.859 36.2566 41.0054 41.8063Z" fill="url(#paint1_radial_250_3120)"/>
<path d="M34.9949 39.8352C35.1977 39.9476 35.4517 39.8368 35.5064 39.6116C35.8329 38.2681 36.2683 36.9507 36.8118 35.6656C38.1156 32.5831 39.9819 29.815 42.359 27.4378C43.465 26.3319 44.6561 25.3375 45.9237 24.4581C46.0671 24.3586 46.0127 24.1337 45.8395 24.1125C45.2362 24.0386 44.622 24.0002 43.9987 24.0002C39.5139 24.0002 35.4893 25.969 32.7406 29.0889C32.653 29.1883 32.6315 29.329 32.6807 29.452C33.3824 31.2044 33.75 33.0924 33.75 35.0369C33.75 36.2353 33.6098 37.412 33.3384 38.5489C33.3039 38.6937 33.3615 38.8454 33.4862 38.9267C33.9791 39.2482 34.4824 39.551 34.9949 39.8352Z" fill="url(#paint2_radial_250_3120)"/>
<path d="M44.0007 54C51.3311 54 57.4322 48.7414 58.7402 41.791C58.7934 41.5088 58.5023 41.2846 58.2437 41.4093C57.8687 41.5902 57.4888 41.7624 57.1035 41.9253C53.912 43.2752 50.5219 43.9597 47.0277 43.9597C44.9678 43.9597 42.9442 43.7218 40.9761 43.25C40.7829 43.2037 40.5901 43.3292 40.5518 43.5241C40.3798 44.3982 40.2891 45.3012 40.2891 46.225C40.2891 48.7692 40.9728 51.1564 42.1654 53.2136C42.433 53.6753 42.9179 53.97 43.4513 53.9898C43.6336 53.9965 43.8167 54 44.0007 54Z" fill="url(#paint3_radial_250_3120)"/>
<path d="M29.4157 37.0447C29.3076 36.9442 29.1311 37.0096 29.113 37.156C29.0387 37.7603 29 38.3756 29 39C29 40.483 29.216 41.9154 29.6172 43.2684C29.666 43.433 29.8832 43.4714 29.9854 43.3333C30.847 42.1685 31.5327 40.8659 32.0017 39.465C32.0509 39.3179 32 39.1566 31.8744 39.0658C31.0174 38.4457 30.1971 37.7713 29.4157 37.0447Z" fill="url(#paint4_radial_250_3120)"/>
<path d="M39.2574 46.2249C39.2574 45.1957 39.3605 44.1824 39.5614 43.1966C39.5974 43.0204 39.4918 42.8472 39.32 42.7936C38.5194 42.5438 37.7292 42.2545 36.9508 41.9253L36.5712 41.7646C36.3576 41.6742 36.1162 41.81 36.082 42.0395C35.9015 43.2543 35.8088 44.4906 35.8088 45.7414C35.8088 47.8509 36.0716 49.9198 36.5784 51.9121C36.6023 52.0059 36.6639 52.0862 36.7485 52.1331C37.9857 52.8177 39.3299 53.3325 40.7497 53.6462C40.9548 53.6915 41.117 53.4768 41.018 53.2916C39.8682 51.1427 39.2574 48.7309 39.2574 46.2249Z" fill="url(#paint5_radial_250_3120)"/>
<path d="M34.7788 45.7414C34.7788 44.2578 34.9026 42.793 35.148 41.3543C35.1736 41.2039 35.1 41.0549 34.9651 40.9838C34.4133 40.6931 33.8732 40.3827 33.3452 40.0536C33.1563 39.9357 32.9084 40.0235 32.8314 40.2324C32.3058 41.6601 31.5611 43.0032 30.6153 44.2209C30.3343 44.5826 30.2724 45.071 30.4707 45.4839C31.5086 47.6457 33.0493 49.5202 34.9414 50.9561C35.0901 51.069 35.299 50.9403 35.2629 50.7571C34.9411 49.117 34.7788 47.4416 34.7788 45.7414Z" fill="url(#paint6_radial_250_3120)"/>
<path d="M32.7189 35.0369C32.7189 33.466 32.4583 31.9549 31.9782 30.5444C31.9282 30.3974 31.7313 30.3686 31.6425 30.496C30.7067 31.8372 29.9312 33.5496 29.4742 35.2197C29.4109 35.4512 29.4832 35.6985 29.6605 35.8604C30.1742 36.3296 31.2644 37.3129 31.9245 37.8196C32.1328 37.9795 32.4345 37.8602 32.4826 37.6021C32.6377 36.7703 32.7189 35.913 32.7189 35.0369Z" fill="url(#paint7_radial_250_3120)"/>
</g>
<defs>
<filter id="filter0_d_250_3120" x="0.765808" y="0.283278" width="86.469" height="86.4684" filterUnits="userSpaceOnUse" color-interpolation-filters="sRGB">
<feFlood flood-opacity="0" result="BackgroundImageFix"/>
<feColorMatrix in="SourceAlpha" type="matrix" values="0 0 0 0 0 0 0 0 0 0 0 0 0 0 0 0 0 0 127 0" result="hardAlpha"/>
<feOffset dy="4.51747"/>
<feGaussianBlur stdDeviation="14.1171"/>
<feComposite in2="hardAlpha" operator="out"/>
<feColorMatrix type="matrix" values="0 0 0 0 0 0 0 0 0 0 0 0 0 0 0 0 0 0 0.75 0"/>
<feBlend mode="normal" in2="BackgroundImageFix" result="effect1_dropShadow_250_3120"/>
<feBlend mode="normal" in="SourceGraphic" in2="effect1_dropShadow_250_3120" result="shape"/>
</filter>
<radialGradient id="paint0_radial_250_3120" cx="0" cy="0" r="1" gradientUnits="userSpaceOnUse" gradientTransform="translate(35.621 31.1134) scale(22.7858 22.7858)">
<stop stop-color="#FF931E"/>
<stop offset="0.325" stop-color="#FF901C"/>
<stop offset="0.567" stop-color="#FF8717"/>
<stop offset="0.781" stop-color="#FF770E"/>
<stop offset="0.978" stop-color="#FF6002"/>
<stop offset="1" stop-color="#FF5D00"/>
</radialGradient>
<radialGradient id="paint1_radial_250_3120" cx="0" cy="0" r="1" gradientUnits="userSpaceOnUse" gradientTransform="translate(35.6224 31.1137) scale(22.7858)">
<stop stop-color="#FF931E"/>
<stop offset="0.325" stop-color="#FF901C"/>
<stop offset="0.567" stop-color="#FF8717"/>
<stop offset="0.781" stop-color="#FF770E"/>
<stop offset="0.978" stop-color="#FF6002"/>
<stop offset="1" stop-color="#FF5D00"/>
</radialGradient>
<radialGradient id="paint2_radial_250_3120" cx="0" cy="0" r="1" gradientUnits="userSpaceOnUse" gradientTransform="translate(35.6204 31.1136) scale(22.7858 22.7858)">
<stop stop-color="#FF931E"/>
<stop offset="0.325" stop-color="#FF901C"/>
<stop offset="0.567" stop-color="#FF8717"/>
<stop offset="0.781" stop-color="#FF770E"/>
<stop offset="0.978" stop-color="#FF6002"/>
<stop offset="1" stop-color="#FF5D00"/>
</radialGradient>
<radialGradient id="paint3_radial_250_3120" cx="0" cy="0" r="1" gradientUnits="userSpaceOnUse" gradientTransform="translate(35.6224 31.1137) scale(22.7858 22.7857)">
<stop stop-color="#FF931E"/>
<stop offset="0.325" stop-color="#FF901C"/>
<stop offset="0.567" stop-color="#FF8717"/>
<stop offset="0.781" stop-color="#FF770E"/>
<stop offset="0.978" stop-color="#FF6002"/>
<stop offset="1" stop-color="#FF5D00"/>
</radialGradient>
<radialGradient id="paint4_radial_250_3120" cx="0" cy="0" r="1" gradientUnits="userSpaceOnUse" gradientTransform="translate(35.6216 31.1134) scale(22.7858 22.7858)">
<stop stop-color="#FF931E"/>
<stop offset="0.325" stop-color="#FF901C"/>
<stop offset="0.567" stop-color="#FF8717"/>
<stop offset="0.781" stop-color="#FF770E"/>
<stop offset="0.978" stop-color="#FF6002"/>
<stop offset="1" stop-color="#FF5D00"/>
</radialGradient>
<radialGradient id="paint5_radial_250_3120" cx="0" cy="0" r="1" gradientUnits="userSpaceOnUse" gradientTransform="translate(35.6213 31.1137) scale(22.7857)">
<stop stop-color="#FF931E"/>
<stop offset="0.325" stop-color="#FF901C"/>
<stop offset="0.567" stop-color="#FF8717"/>
<stop offset="0.781" stop-color="#FF770E"/>
<stop offset="0.978" stop-color="#FF6002"/>
<stop offset="1" stop-color="#FF5D00"/>
</radialGradient>
<radialGradient id="paint6_radial_250_3120" cx="0" cy="0" r="1" gradientUnits="userSpaceOnUse" gradientTransform="translate(35.6218 31.1137) scale(22.7858 22.7857)">
<stop stop-color="#FF931E"/>
<stop offset="0.325" stop-color="#FF901C"/>
<stop offset="0.567" stop-color="#FF8717"/>
<stop offset="0.781" stop-color="#FF770E"/>
<stop offset="0.978" stop-color="#FF6002"/>
<stop offset="1" stop-color="#FF5D00"/>
</radialGradient>
<radialGradient id="paint7_radial_250_3120" cx="0" cy="0" r="1" gradientUnits="userSpaceOnUse" gradientTransform="translate(35.6198 31.1136) scale(22.7858 22.7858)">
<stop stop-color="#FF931E"/>
<stop offset="0.325" stop-color="#FF901C"/>
<stop offset="0.567" stop-color="#FF8717"/>
<stop offset="0.781" stop-color="#FF770E"/>
<stop offset="0.978" stop-color="#FF6002"/>
<stop offset="1" stop-color="#FF5D00"/>
</radialGradient>
</defs>
</svg>
