<svg width="30" height="30" viewBox="0 0 30 30" fill="none" xmlns="http://www.w3.org/2000/svg">
<path d="M25.2505 26.5334L28.4515 29.7347C28.8049 30.0881 29.3785 30.0881 29.7319 29.7347C30.0853 29.3812 30.0853 28.8076 29.7319 28.4542L26.5309 25.2529H25.2505V26.5334Z" fill="#FF7A3C"/>
<path d="M23.9717 25.2539L25.2521 26.5344L26.5325 25.2539L25.2521 23.9734H23.9717V25.2539Z" fill="#FF372B"/>
<path d="M22.6904 23.9734L23.9708 25.2538L25.2512 23.9734L23.9708 22.6929H22.6904V23.9734Z" fill="#FFBA48"/>
<path d="M20.7651 22.0535L22.0453 20.7732L23.9657 22.6936L22.6854 23.9739L20.7651 22.0535Z" fill="#0AB84F"/>
<path d="M19.4805 13.7202L16.2795 16.9214L1.81065 2.45142L0.530258 3.7319C-0.176964 4.43918 -0.176541 5.58608 0.530258 6.29288L17.8895 23.6535C18.5967 24.3608 19.7431 24.3608 20.4503 23.6535L21.7307 22.373L22.0413 16.2811L19.4805 13.7202Z" fill="#FFBA48"/>
<path d="M6.29314 0.5303C5.58634 -0.176555 4.43952 -0.176978 3.73236 0.5303L1.81175 2.45106C1.10453 3.15834 1.10495 4.30524 1.81175 5.01204L15.0002 18.2015L19.4816 13.7198L6.29314 0.5303Z" fill="#FFD185"/>
<path d="M17.5586 20.7632L19.1685 22.3733C19.8758 23.0806 21.0222 23.0806 21.7293 22.3733L23.6499 20.4525C24.3571 19.7453 24.3571 18.5988 23.6499 17.8916L22.04 16.2815L17.5586 20.7632Z" fill="#FFD185"/>
<path d="M4.74643 26.5334L1.54544 29.7347C1.19204 30.0881 0.618449 30.0881 0.26505 29.7347C-0.0883499 29.3812 -0.0883499 28.8076 0.26505 28.4542L3.46605 25.2529H4.74643V26.5334Z" fill="#FF7A3C"/>
<path d="M6.02568 25.2539L4.74523 26.5344L3.46484 25.2539L4.74523 23.9734H6.02568V25.2539Z" fill="#FF372B"/>
<path d="M7.30644 23.9734L6.02605 25.2538L4.74561 23.9734L6.02605 22.6929H7.30644V23.9734Z" fill="#FFBA48"/>
<path d="M6.0249 22.6904L7.94521 20.77L9.22542 22.0503L7.30511 23.9707L6.0249 22.6904Z" fill="#0AB84F"/>
<path d="M29.4699 3.7319L28.1896 2.45142L8.26953 22.373L9.54992 23.6535C10.2571 24.3608 11.4035 24.3608 12.1107 23.6535L29.4699 6.29288C30.1767 5.58602 30.1772 4.43918 29.4699 3.7319Z" fill="#FFD185"/>
<path d="M28.188 2.45106L26.2673 0.530299C25.5601 -0.176978 24.4133 -0.176555 23.7066 0.530299L6.34731 17.8909C5.64009 18.5981 5.64009 19.7446 6.34731 20.4518L8.26792 22.3726C8.97514 23.0799 10.1215 23.0799 10.8287 22.3726L28.188 5.01204C28.8947 4.30518 28.8951 3.15828 28.188 2.45106Z" fill="#FFE8C2"/>
<path d="M14.9987 4.52725C16.2487 4.52725 17.2621 3.51379 17.2621 2.26363C17.2621 1.01346 16.2487 0 14.9987 0C13.7486 0 12.7352 1.01346 12.7352 2.26363C12.7352 3.51379 13.7486 4.52725 14.9987 4.52725Z" fill="#FF372B"/>
</svg>
