<svg xmlns="http://www.w3.org/2000/svg" xmlns:xlink="http://www.w3.org/1999/xlink"
    viewBox="0 0 100 100" version="1.1" x="0px" y="0px">
    <g>
        <g fill="#000000">
            <path
                d="M50,100 C22.3857625,100 0,77.6142375 0,50 C0,22.3857625 22.3857625,0 50,0 C77.6142375,0 100,22.3857625 100,50 C100,77.6142375 77.6142375,100 50,100 Z M23.0458885,57.2741246 C22.6634925,58.2703842 22.8094487,59.8081299 23.3797575,60.7213726 L30.2735748,71.76053 C30.8403616,72.6681328 32.1616389,73.3429822 33.230567,73.2674357 L49.1299575,72.1437457 C50.1962724,72.0683839 51.4102245,71.2149224 51.8373254,70.2467123 L57.7382482,56.8697047 C58.1671714,55.897364 57.9883868,54.4240953 57.3335442,53.5720703 L47.2583487,40.463091 C46.6059137,39.6141986 45.2191947,39.0379608 44.1626121,39.1758209 L31.1599219,40.8723771 C30.1026287,41.0103299 28.9359982,41.928571 28.5531341,42.9260503 L23.0458885,57.2741246 Z M49.9887499,38.31332 L60.135477,51.5153701 C60.7901654,52.3671945 62.1773615,52.9859708 63.2457123,52.9128589 L76.2400434,52.0235999 C77.3150329,51.9500336 78.4923477,51.0870213 78.8844777,50.0949932 L83.8150943,37.6212967 C84.210179,36.6217936 84.0280527,35.1129387 83.4149034,34.2344791 L74.8828368,22.0105799 C74.2625838,21.121943 72.911618,20.4411513 71.8495037,20.4672573 L57.2374346,20.8264116 C56.1798324,20.8524067 54.9860632,21.6769385 54.5811544,22.6678071 L49.546087,34.989324 C49.1397943,35.9835792 49.3393652,37.4683963 49.9887499,38.31332 Z M7.75934246,57.7107169 C8.06258349,58.7314688 9.15031007,59.3943175 10.2051786,59.1880374 L17.3727704,57.7864112 C18.4203274,57.5815609 19.5757283,56.6177823 19.9592697,55.6185386 L25.7056439,40.6474603 C26.086571,39.6550277 26.0624454,38.0425682 25.6588554,37.0631554 L21.5420821,27.0727671 C21.1353144,26.0856428 19.9399521,25.3985793 18.8910252,25.5357023 L13.6924223,26.2153 C12.6350517,26.3535268 11.459392,27.2610077 11.0615881,28.2545151 L4.58181052,44.4376297 C4.50436322,45.0766424 4.440089,45.7197161 4.38926751,46.3665711 L7.75934246,57.7107169 Z M62.7403436,83.3165859 L53.7645321,76.5658729 C52.9170491,75.9284804 51.361644,75.4695924 50.2957636,75.5449235 L33.6412345,76.7219829 C32.5666487,76.7979293 31.4505331,77.6806892 31.1288765,78.6950565 L29.5154548,83.7830981 C29.1944144,84.7955223 29.5336869,86.2435172 30.2746174,87.0129451 L36.841569,93.8324717 C41.0088727,95.0817157 45.4260551,95.7528958 50,95.7528958 C52.9840034,95.7528958 55.9012863,95.4672316 58.7259934,94.9217585 L63.3745928,86.1758107 C63.870827,85.2421878 63.5902112,83.9557718 62.7403436,83.3165859 Z M70.2781789,83.1443375 C69.427616,83.7888469 68.3322671,85.0748625 67.8285066,86.0226456 L63.7789083,93.6416233 C74.1223278,90.3790163 82.8787402,83.5408291 88.5982861,74.5769211 L84.5532486,74.0382901 C83.4926911,73.8970679 81.9438921,74.3047066 81.092859,74.9495723 L70.2781789,83.1443375 Z M89.401916,38.0263601 C88.3478164,37.8841356 87.1734089,38.5781145 86.7835246,39.5644615 L81.5707469,52.751982 C81.1787488,53.7436765 81.0350963,55.4037852 81.245207,56.4369122 L83.7154013,68.5830042 C83.9276087,69.6264404 84.9615481,70.5870835 86.017131,70.7276433 L88.5730877,71.0679905 C89.6320905,71.2090057 90.4905792,71.3233262 90.4905792,71.3233262 C93.8506994,64.9560143 95.7528958,57.700148 95.7528958,50 C95.7528958,46.097731 95.2643653,42.3095644 94.3451279,38.6933236 L89.401916,38.0263601 Z M73.731547,15.0984507 L74.7463786,11.5103634 C67.6121733,6.91403672 59.1175344,4.24710425 50,4.24710425 C47.2215311,4.24710425 44.500908,4.49477132 41.8590028,4.96923324 L40.5290404,8.63906371 C40.166353,9.63984469 40.646881,10.8316373 41.6010609,11.3045081 L52.2355471,16.5747277 C53.1856397,17.0455729 54.8287364,17.4096627 55.896377,17.3834209 L71.2724774,17.0054872 C72.3414251,16.9792133 73.441081,16.125436 73.731547,15.0984507 Z M13.2276429,22.7715892 C13.2276429,22.7715892 14.0844235,22.6595849 15.141316,22.5214205 L20.8841777,21.7706736 C21.9485588,21.6315303 23.4927838,21.0103061 24.3500269,20.3809439 L34.0081937,13.2902084 C34.8560221,12.6677583 35.8545195,11.3389856 36.2173716,10.3377499 L37.8318351,5.88288162 C27.8494017,8.63002381 19.2330824,14.6745149 13.2276429,22.7715892 Z M21.4400117,86.1210144 C21.4400117,86.1210144 24.2756091,89.1763706 28.744549,91.0618513 L26.8355921,88.7176475 C26.1629843,87.8916836 24.7723048,86.9992849 23.7488161,86.7295307 L21.4400117,86.1210144 Z" />
        </g>
    </g>
</svg>