<svg xmlns="http://www.w3.org/2000/svg" version="1.1" viewBox="-5.0 -10.0 110.0 135.0">
    <g>
        <path
            d="m12.25 43.875c-1.2812 0-2.3438-0.34375-3.0625-1.1562-0.78125-0.90625-1.1562-1.9375-1.0938-3.0938 0.1875-2.875 3.0312-5.4375 3.1562-5.5312 0 0 0.0625-0.03125 0.09375-0.0625l0.4375 0.65625c-0.1875 0.1875-1.3125 1.2188-2.0938 2.5938-1.0938 1.9375-1.0625 3.5625 0.125 4.9062 1.8438 2.0938 7.3438 0.5 16.438-4.6562l0.375 0.6875c-4.5625 2.5938-10.469 5.6562-14.312 5.6562z" />
        <path
            d="m53.719 50.438c-5.9375 0-12.312-1.6875-22.312-9-1.6875-1.2188-3.4375-2.3125-5.1875-3.2188-8.2812-4.2812-14.562-3.4688-14.625-3.4688-0.15625 0-0.28125-0.03125-0.375-0.15625s-0.09375-0.28125-0.03125-0.40625c0.03125-0.0625 0.09375-0.125 0.1875-0.1875 6.5-3.4375 11.656-5.4688 14.812-6.5625l0.25 0.75c-2.875 1-7.4375 2.7812-13.156 5.7188 2.5 0 7.375 0.5625 13.312 3.625 1.7812 0.90625 3.5625 2.0312 5.2812 3.2812 12.688 9.25 19.156 9.3438 26.875 8.5 7.5-0.8125 21.094-12.344 21.75-13.281l0.3125 0.21875h0.40625c0 0.09375 0 0.15625-0.0625 0.21875-0.625 0.90625-14.5 12.75-22.312 13.594-1.7188 0.1875-3.4062 0.34375-5.0938 0.34375z" />
        <path
            d="m92.625 43.781s-0.21875-0.03125-0.28125-0.125c0 0-3-3.1562-11.688-7.0312-6.4688-2.9062-14.406-5.4688-23.531-7.5938-15.312-3.5938-25.156-2.4375-30.719-0.8125-0.125 0-0.28125 0-0.40625-0.09375-0.09375-0.09375-0.15625-0.21875-0.125-0.375l2.25-9.4688s0.59375-4.0625 3.0625-6.5938c0.34375-0.3125 0.6875-0.625 1.0312-0.875 3.5938-2.75 8.8125-3.6875 9.0312-3.7188 2.7188-0.53125 6.2188-0.875 10.781-1.0625h0.84375c13.406 0 32.656 11.188 40.062 20.812 0.125 0.25 2.4062 4.6562 0.0625 16.594 0 0.15625-0.125 0.25-0.28125 0.3125h-0.09375zm-53.969-17.906c5.0312 0 11.219 0.625 18.656 2.375 9.1875 2.1562 17.156 4.75 23.688 7.6562 6.875 3.0625 10.188 5.6562 11.406 6.7188 2.0312-11.094-0.0625-15.281-0.09375-15.344-7.1875-9.375-26.562-20.469-39.438-20.469h-0.78125c-4.5312 0.15625-8 0.5-10.625 1.0312-0.25 0.0625-5.2812 0.96875-8.75 3.5938-0.34375 0.25-0.65625 0.53125-0.96875 0.8125-2.2812 2.3438-2.8438 6.125-2.8438 6.1562l-2.125 8.8438c2.9062-0.78125 6.8125-1.4062 11.875-1.4062z" />
        <path
            d="m31.469 12.375s-0.1875-0.03125-0.28125-0.125c-0.15625-0.15625-0.15625-0.40625 0-0.5625 0.34375-0.34375 0.6875-0.625 1.0625-0.875 0.1875-0.125 0.40625-0.0625 0.53125 0.09375 0.125 0.1875 0.09375 0.40625-0.09375 0.53125-0.34375 0.25-0.65625 0.53125-0.96875 0.8125-0.0625 0.0625-0.1875 0.09375-0.28125 0.09375z" />
        <path
            d="m77.031 81.531h-0.15625c-4.1875-0.03125-8.125-1.7188-11.094-4.7188-2.9688-3.0312-4.5938-7.0625-4.5312-11.344 0-4.1562 1.7812-8.25 4.8125-11.188 2.9688-2.9062 6.9062-4.5 11.062-4.5h0.28125c8.75 0.15625 15.594 7.125 15.625 15.875 0 4.2812-1.625 8.2812-4.625 11.25s-7.0312 4.5938-11.375 4.5938zm0.09375-30.969c-3.9688 0-7.7188 1.5-10.531 4.2812-2.875 2.8125-4.5312 6.6875-4.5625 10.656-0.0625 4.0625 1.4688 7.9062 4.3125 10.781 2.8125 2.875 6.5312 4.4688 10.531 4.5h0.15625c4.125 0 7.9688-1.5625 10.812-4.375s4.4062-6.625 4.4062-10.719c0-8.3125-6.5312-14.969-14.844-15.094h-0.28125zm-3.8125 28.062h-0.125c-1.0312-0.0625-1.8438-0.53125-2.375-1.4062-0.34375-0.59375-0.375-1.2188-0.09375-1.7188 0.3125-0.53125 0.9375-0.875 1.75-0.875 0.875 0.03125 1.6875 0.53125 2.2188 1.3438 0.40625 0.625 0.4375 1.25 0.125 1.8125s-0.84375 0.84375-1.5312 0.84375zm-0.84375-3.2188c-0.53125 0-0.90625 0.1875-1.0625 0.46875-0.15625 0.25-0.125 0.59375 0.09375 0.9375 0.375 0.65625 0.96875 1 1.7188 1.0312 0.46875 0.03125 0.78125-0.125 0.9375-0.4375s0.125-0.625-0.125-1c-0.40625-0.59375-0.96875-0.96875-1.5625-1zm8.5625 3.2188s-0.28125 0-0.40625-0.03125c-0.53125-0.09375-0.96875-0.375-1.2188-0.8125s-0.25-0.9375-0.03125-1.4375c0.40625-1 1.4688-1.6875 2.5938-1.6875 0.9375 0 1.375 0.46875 1.5938 0.84375 0.3125 0.5625 0.25 1.1562-0.125 1.8125-0.5 0.8125-1.4688 1.3438-2.375 1.3438zm0.9375-3.2188c-0.78125 0-1.5625 0.5-1.8438 1.2188-0.125 0.28125-0.125 0.5625 0 0.78125s0.34375 0.375 0.65625 0.40625c0.75 0.125 1.5625-0.28125 2-0.9375 0.3125-0.53125 0.21875-0.8125 0.125-1s-0.3125-0.4375-0.90625-0.4375zm-4.8125-1.5625c-1.2812 0-2.3438-1.0312-2.3438-2.3438 0-0.625 0.25-1.2188 0.6875-1.6562s1.0312-0.6875 1.6562-0.6875c1.2812 0 2.3438 1.0312 2.3438 2.3438 0 1.2812-1.0312 2.3438-2.3438 2.3438zm0-3.9062c-0.40625 0-0.8125 0.15625-1.0938 0.46875s-0.46875 0.6875-0.46875 1.0938 0.15625 0.8125 0.46875 1.0938c0.28125 0.28125 0.6875 0.4375 1.0938 0.4375 0.84375 0 1.5625-0.71875 1.5625-1.5625s-0.6875-1.5625-1.5625-1.5625zm10.562 2.3125c-0.3125 0-0.59375-0.09375-0.84375-0.25-0.5-0.34375-0.78125-0.96875-0.75-1.75 0.0625-0.90625 0.5625-1.6875 1.375-2.1875 0.59375-0.375 1.25-0.40625 1.7812-0.125s0.84375 0.875 0.875 1.5625c0 1.0312-0.71875 2.1875-1.6875 2.5938-0.25 0.09375-0.5 0.15625-0.71875 0.15625zm-0.8125-1.9688c0 0.5 0.15625 0.90625 0.40625 1.0625 0.21875 0.15625 0.5 0.15625 0.8125 0 0.65625-0.28125 1.2188-1.125 1.2188-1.8438 0-0.4375-0.1875-0.75-0.46875-0.90625s-0.625-0.09375-1 0.125c-0.59375 0.375-0.9375 0.90625-1 1.5625zm-20.312 1.9688c-0.28125 0-0.59375-0.0625-0.90625-0.21875-1.0312-0.53125-1.6562-1.8125-1.4688-2.9062 0.09375-0.53125 0.375-0.9375 0.78125-1.1562s0.90625-0.25 1.4062-0.0625c1 0.375 1.7812 1.5 1.7812 2.625 0 0.6875-0.28125 1.25-0.78125 1.5312-0.25 0.15625-0.53125 0.21875-0.8125 0.21875zm-0.8125-3.7188s-0.25 0-0.375 0.09375c-0.21875 0.125-0.34375 0.34375-0.40625 0.625-0.15625 0.78125 0.3125 1.6875 1.0625 2.0625 0.34375 0.1875 0.6875 0.1875 0.9375 0.03125s0.40625-0.46875 0.40625-0.875c0-0.8125-0.53125-1.625-1.25-1.875-0.125-0.03125-0.25-0.0625-0.375-0.0625zm17.219-0.53125c-1.3125 0-2.3438-1-2.3438-2.3125 0-0.625 0.25-1.2188 0.6875-1.6562s1.0312-0.6875 1.6562-0.6875c1.2812 0 2.3438 1.0625 2.3438 2.3125 0 0.625-0.21875 1.1875-0.65625 1.6562-0.4375 0.4375-1.0312 0.6875-1.6562 0.6875zm0-0.78125v0.375-0.375c0.4375 0 0.8125-0.15625 1.125-0.46875 0.28125-0.28125 0.4375-0.6875 0.4375-1.0938 0-0.84375-0.71875-1.5625-1.5625-1.5625-0.40625 0-0.8125 0.15625-1.0938 0.46875-0.28125 0.28125-0.4375 0.6875-0.4375 1.0938 0 0.875 0.6875 1.5312 1.5625 1.5312zm-11.656 0.78125c-0.625 0-1.2188-0.25-1.6562-0.6875s-0.6875-1.0312-0.65625-1.6562c0-1.2812 1.0625-2.3125 2.3438-2.3125 0.625 0 1.2188 0.25 1.6562 0.6875s0.6875 1.0312 0.6875 1.6562c0 1.3125-1.0312 2.3125-2.3438 2.3125zm0-0.78125c0.875 0 1.5625-0.6875 1.5625-1.5312 0-0.40625-0.15625-0.8125-0.4375-1.0938-0.28125-0.3125-0.6875-0.46875-1.0938-0.46875-0.875 0-1.5625 0.6875-1.5625 1.5625 0 0.40625 0.15625 0.8125 0.4375 1.0938 0.28125 0.3125 0.6875 0.46875 1.0938 0.46875zm17.219-3.6562c-0.25 0-0.53125-0.0625-0.8125-0.1875-0.96875-0.46875-1.5312-1.3438-1.5938-2.375 0-0.8125 0.3125-1.4375 0.84375-1.75 0.5-0.28125 1.125-0.25 1.7188 0.0625 1 0.5625 1.625 1.7812 1.4375 2.8438-0.09375 0.5625-0.40625 1.0312-0.875 1.25-0.21875 0.125-0.4375 0.15625-0.6875 0.15625zm-1.625-2.5938c0.0625 0.75 0.46875 1.3438 1.1562 1.6875 0.28125 0.125 0.5625 0.15625 0.78125 0.03125 0.25-0.125 0.40625-0.375 0.46875-0.6875 0.125-0.71875-0.34375-1.625-1.0312-2-0.34375-0.1875-0.6875-0.21875-0.9375-0.0625-0.28125 0.15625-0.4375 0.53125-0.46875 1.0312zm-21.125 2.5938c-0.28125 0-0.5625-0.0625-0.8125-0.21875-0.5-0.28125-0.78125-0.8125-0.78125-1.4375 0-1.0625 0.4375-1.9375 1.3438-2.5 0.78125-0.5 1.4062-0.375 1.8125-0.125 0.75 0.40625 0.84375 1.1562 0.84375 1.6875-0.125 1.125-0.65625 1.9688-1.5625 2.4062-0.28125 0.15625-0.59375 0.21875-0.875 0.21875zm0.8125-3.75c-0.15625 0-0.375 0.0625-0.625 0.21875-0.65625 0.4375-1 1.0312-0.96875 1.8438 0 0.34375 0.15625 0.65625 0.40625 0.78125 0.25 0.15625 0.59375 0.125 0.90625 0 0.65625-0.34375 1.0312-0.90625 1.125-1.7188 0-0.53125-0.15625-0.8125-0.4375-1-0.09375-0.0625-0.21875-0.09375-0.375-0.09375zm10.562 2.375c-1.2812 0-2.3438-1.0625-2.3438-2.3438s1.0625-2.3438 2.3438-2.3438 2.3438 1.0312 2.3438 2.3438c0 1.2812-1.0625 2.3438-2.3438 2.3438zm0-3.9062c-0.84375 0-1.5625 0.6875-1.5625 1.5625s0.6875 1.5625 1.5625 1.5625 1.5625-0.71875 1.5625-1.5625-0.6875-1.5625-1.5625-1.5625zm4.7188-1.5938c-1-0.09375-1.8125-0.5625-2.3125-1.4375-0.375-0.625-0.375-1.2188-0.0625-1.7812 0.34375-0.5625 0.9375-0.84375 1.625-0.8125 1 0.0625 1.8125 0.53125 2.3438 1.375 0.5 0.78125 0.34375 1.4375 0.125 1.8125-0.3125 0.5625-0.875 0.8125-1.6875 0.84375zm-0.90625-3.2188c-0.375 0-0.65625 0.15625-0.84375 0.4375-0.15625 0.28125-0.15625 0.625 0.0625 0.96875 0.375 0.625 0.9375 0.96875 1.6875 1.0312 0.53125 0 0.8125-0.125 1-0.4375 0.125-0.1875 0.21875-0.5-0.09375-1-0.40625-0.625-0.96875-0.96875-1.7188-1h-0.09375zm-8.6562 3.2188c-0.6875 0-1.2812-0.3125-1.5625-0.8125s-0.28125-1.1562 0.0625-1.75c0.5625-1.0312 1.9375-1.6562 2.9688-1.375 0.53125 0.125 0.9375 0.4375 1.125 0.875 0.21875 0.4375 0.1875 0.9375 0 1.4375-0.4375 0.96875-1.5 1.625-2.5625 1.625zm0.9375-3.2188c-0.65625 0-1.4375 0.4375-1.7812 1.0312-0.21875 0.34375-0.21875 0.71875-0.0625 0.96875 0.15625 0.28125 0.46875 0.4375 0.90625 0.4375 0.75 0 1.5312-0.5 1.8438-1.1875 0.125-0.28125 0.125-0.5625 0.03125-0.78125s-0.3125-0.375-0.625-0.46875c-0.09375 0-0.21875-0.03125-0.3125-0.03125z" />
        <path
            d="m65.094 93.938c-0.375 0-0.75-0.09375-1.0938-0.34375l-2.0312-1.3438c-0.28125-0.1875-0.375-0.53125-0.40625-0.75l-8.9375-5.875 4-6.0625 8.875 5.8438c0.25-0.125 0.5625-0.125 0.8125 0.03125l2.125 1.4062c0.9375 0.59375 1.1875 1.8438 0.5625 2.7812l-2.25 3.4375c-0.375 0.59375-1.0312 0.90625-1.6875 0.90625zm-2.6875-2.3125 2 1.3125c0.5625 0.375 1.3125 0.21875 1.6875-0.34375l2.25-3.4375c0.1875-0.28125 0.25-0.59375 0.1875-0.90625s-0.25-0.59375-0.53125-0.78125l-2.125-1.4062-0.21875 0.3125-0.375-0.1875-8.4688-5.5625-3.125 4.7812 8.6562 5.6875v0.21875s0 0.25 0.03125 0.3125z" />
        <path
            d="m32.75 87.188c-2.0625 0-4.125-0.59375-5.9375-1.75l-16.031-10.531c-4.9688-3.25-6.3438-9.9375-3.0625-14.906l7.5625-11.469c1.5938-2.4062 4-4.0312 6.8125-4.625 2.8125-0.5625 5.6875 0 8.0938 1.5625l16.031 10.531c3.9688 2.5938 5.7812 7.5938 4.375 12.125-0.78125 5.6875 2.3438 7.875 2.4688 7.9688l0.90625 0.59375c0.34375 0.21875 0.5625 0.5625 0.65625 0.96875s0 0.8125-0.21875 1.1562l-3.4062 5.1562c-0.21875 0.34375-0.5625 0.5625-0.96875 0.65625s-0.8125 0-1.1562-0.21875l-0.90625-0.59375s-3.4062-2.125-8.3438 0.90625c-1.9375 1.6562-4.4062 2.5-6.9062 2.5zm-21.5-12.969 16.031 10.531c3.6562 2.4062 8.5938 2.125 11.938-0.71875 5.4062-3.3438 9.0625-1.0312 9.2188-0.9375l0.90625 0.59375c0.15625 0.125 0.34375 0.15625 0.5625 0.125 0.1875-0.03125 0.375-0.15625 0.46875-0.3125l3.4062-5.1562c0.125-0.15625 0.15625-0.375 0.125-0.5625s-0.15625-0.375-0.3125-0.46875l-0.90625-0.59375s-3.7188-2.5312-2.8125-8.7812c1.2812-4.25-0.375-8.875-4.0625-11.312l-16.031-10.531c-2.2188-1.4688-4.9062-1.9688-7.5-1.4375-2.625 0.53125-4.8438 2.0625-6.3125 4.2812l-7.5625 11.469c-3.0312 4.5938-1.75 10.812 2.8438 13.844z" />
    </g>
</svg>