<svg xmlns="http://www.w3.org/2000/svg" version="1.1" viewBox="-5.0 -10.0 110.0 135.0">
    <g>
        <path
            d="m44.5 86.219c-0.5 0-1-0.1875-1.375-0.5625l-2.75-2.75c-0.75-0.75-0.75-1.9688 0-2.7188l1.7188-1.7188c0.21875-0.21875 0.5-0.28125 0.78125-0.1875l7.125-7.125 4.9062 4.9062-7.1875 7.1875c0 0.21875 0 0.5625-0.21875 0.78125l-1.625 1.625c-0.375 0.375-0.875 0.5625-1.375 0.5625zm-1.8438-7.1875-1.7188 1.7188c-0.4375 0.4375-0.4375 1.1562 0 1.5938l2.75 2.75c0.4375 0.4375 1.1875 0.4375 1.625 0l1.625-1.625v-0.28125l-0.0625-0.21875 6.9375-6.9375-3.8125-3.8125-7.0625 7.0625-0.28125-0.28125z" />
        <path
            d="m57.094 74.594c-0.375 0-0.75-0.15625-1.0312-0.4375l-4.1562-4.1562c-0.5625-0.5625-0.5625-1.5 0-2.0938l0.75-0.75s2.625-2.75 0.75-7.9062c-2.125-3.9062-1.4062-8.875 1.7812-12.094l12.875-12.875c4-4 10.5-3.9688 14.469 0l9.2188 9.2188c1.9375 1.9375 3 4.5 3 7.25s-1.0625 5.3125-3 7.25l-12.875 12.875c-3.1875 3.1875-8.1562 3.9062-12.094 1.7812-5.1562-1.875-7.8438 0.71875-7.875 0.75l-0.75 0.75c-0.28125 0.28125-0.65625 0.4375-1.0312 0.4375zm18.188-42.469c-2.4062 0-4.8438 0.90625-6.6875 2.75l-12.875 12.875c-2.9375 2.9375-3.625 7.5625-1.625 11.219 2.0625 5.6875-0.78125 8.625-0.90625 8.75l-0.75 0.75s-0.21875 0.3125-0.21875 0.5 0.0625 0.34375 0.21875 0.5l4.1562 4.1562c0.25 0.28125 0.71875 0.28125 0.96875 0l0.75-0.75s3.0625-2.9375 8.6562-0.9375h0.03125l0.09375 0.0625c3.6562 1.9688 8.25 1.3125 11.219-1.625l12.875-12.875c3.6875-3.6875 3.6875-9.6875 0-13.375l-9.2188-9.2188c-1.8438-1.8438-4.25-2.75-6.6875-2.75z" />
        <path
            d="m55.5 86.219c-0.5 0-1-0.1875-1.375-0.5625l-1.625-1.625c-0.21875-0.21875-0.25-0.5625-0.21875-0.78125l-7.1875-7.1875 4.9062-4.9062 7.125 7.125c0.25-0.0625 0.5625 0 0.78125 0.1875l1.7188 1.7188c0.75 0.75 0.75 1.9688 0 2.7188l-2.75 2.75c-0.375 0.375-0.875 0.5625-1.375 0.5625zm-2.4062-2.7188 1.625 1.625c0.4375 0.4375 1.1875 0.4375 1.625 0l2.75-2.75c0.4375-0.4375 0.4375-1.1562 0-1.625l-1.7188-1.7188-0.28125 0.28125-7.0625-7.0625-3.8125 3.8125 6.9375 6.9375-0.0625 0.21875v0.28125z" />
        <path
            d="m42.906 74.594c-0.375 0-0.75-0.15625-1.0312-0.4375l-0.75-0.75s-2.75-2.5938-7.875-0.75c-3.9688 2.125-8.9062 1.4062-12.094-1.7812l-12.875-12.875c-1.9375-1.9375-3-4.5-3-7.25s1.0625-5.3125 3-7.25l9.2188-9.2188c4-3.9688 10.469-4 14.469 0l12.875 12.875c3.1875 3.1875 3.9062 8.1875 1.75 12.125-1.8438 5.0938 0.65625 7.7188 0.78125 7.8438l0.75 0.75c0.5625 0.5625 0.5625 1.5 0 2.0938l-4.1562 4.1562c-0.28125 0.28125-0.65625 0.4375-1.0312 0.4375zm-6.0625-3.375c3.0938 0 4.7188 1.5625 4.8125 1.6562l0.75 0.75c0.25 0.25 0.71875 0.28125 0.96875 0l4.1562-4.1562s0.21875-0.3125 0.21875-0.5-0.0625-0.375-0.21875-0.5l-0.75-0.75s-2.9688-3.0938-0.9375-8.7188c2.0312-3.7188 1.3438-8.3125-1.5938-11.25l-12.875-12.875c-3.6875-3.6875-9.6875-3.6875-13.375 0l-9.2188 9.2188c-3.6875 3.6875-3.6875 9.6875 0 13.375l12.875 12.875c2.9375 2.9375 7.5625 3.625 11.219 1.625l0.125-0.0625c1.4375-0.53125 2.7188-0.71875 3.8125-0.71875z" />
        <path
            d="m49.875 60.125h-0.25c-1.1875 0-2.3438-0.125-3.5-0.3125l0.125-0.78125c1.0938 0.1875 2.25 0.28125 3.375 0.28125 1.4062 0 2.8125-0.09375 4.1562-0.3125l0.125 0.78125c-1.3125 0.21875-2.6562 0.34375-4.0312 0.34375zm0.15625-11.312c-1.7812 0-3.25-1.4688-3.25-3.25 0-0.875 0.34375-1.6875 0.9375-2.3125 0.625-0.625 1.4375-0.96875 2.2812-0.96875 1.7812 0 3.25 1.4688 3.2812 3.25 0 1.7812-1.4375 3.25-3.25 3.2812zm0-5.75c-0.65625 0-1.2812 0.25-1.7188 0.71875-0.46875 0.46875-0.71875 1.0938-0.71875 1.75 0 1.375 1.125 2.4688 2.4688 2.4688 1.375 0 2.4688-1.125 2.4688-2.5s-1.125-2.4688-2.5-2.4688zm8.5625-2.8438c-0.875 0-1.6875-0.34375-2.2812-0.9375-0.625-0.59375-0.9375-1.4062-0.96875-2.2812 0-1.7812 1.4375-3.25 3.2188-3.2812 1.75 0 3.25 1.4688 3.25 3.25 0 0.84375-0.3125 1.6562-0.9375 2.2812s-1.4375 0.96875-2.3125 0.96875zm0-5.7188c-0.65625 0-1.2812 0.28125-1.75 0.75s-0.71875 1.0938-0.71875 1.75 0.25 1.2812 0.71875 1.75 1.0938 0.71875 1.75 0.71875 1.2812-0.28125 1.75-0.75 0.71875-1.0938 0.6875-1.7188c0-1.3438-1.1562-2.4688-2.4688-2.4688zm-17.125 5.7188c-0.875 0-1.6875-0.34375-2.3125-0.96875s-0.9375-1.4375-0.9375-2.2812c0-1.7812 1.4688-3.2188 3.2812-3.2188 0.875 0 1.6875 0.34375 2.2812 0.96875 0.625 0.625 0.9375 1.4375 0.9375 2.3125 0 1.8125-1.4375 3.2188-3.25 3.2188zm0-5.7188c-1.375 0-2.4688 1.0938-2.5 2.4688 0 0.65625 0.25 1.2812 0.71875 1.75s1.0938 0.75 1.75 0.75c1.375 0 2.4688-1.0625 2.4688-2.4375 0-0.65625-0.25-1.2812-0.71875-1.75s-1.0938-0.75-1.75-0.75zm25.312-0.8125c-0.375 0-0.75-0.09375-1.125-0.28125-1.3438-0.65625-2.1562-1.875-2.25-3.3125 0-1.0938 0.4375-1.9688 1.1562-2.375 0.65625-0.40625 1.5312-0.375 2.3438 0.09375 1.4062 0.78125 2.2812 2.4688 2 3.9688-0.125 0.78125-0.5625 1.4062-1.1875 1.7188-0.28125 0.15625-0.59375 0.21875-0.90625 0.21875zm-2.5938-3.625c0.0625 1.1875 0.71875 2.125 1.8125 2.6562 0.46875 0.21875 0.9375 0.25 1.3438 0.0625 0.40625-0.21875 0.65625-0.625 0.78125-1.1562 0.21875-1.1562-0.5-2.5312-1.625-3.1562-0.5625-0.3125-1.125-0.34375-1.5625-0.09375-0.46875 0.28125-0.75 0.875-0.75 1.6875zm-30.875 3.625c-0.375 0-0.75-0.09375-1.0938-0.3125-0.65625-0.40625-1.0312-1.125-1.0625-1.9688 0-1.5 0.625-2.7188 1.875-3.5312 1.0938-0.6875 1.9375-0.5 2.4688-0.1875 1.0312 0.5625 1.1562 1.5938 1.1562 2.3125-0.15625 1.5938-0.90625 2.75-2.1875 3.375-0.375 0.1875-0.78125 0.3125-1.1875 0.3125zm1.1875-5.5c-0.3125 0-0.65625 0.125-1 0.34375-1.0312 0.65625-1.5625 1.625-1.5312 2.875 0 0.59375 0.25 1.0625 0.6875 1.3125s1 0.25 1.5312 0c1.0312-0.53125 1.625-1.4375 1.75-2.6875 0-0.84375-0.25-1.3438-0.75-1.625-0.21875-0.125-0.40625-0.1875-0.65625-0.1875zm37.469 4.0938c-2.1562-10.25-11-17.531-21.531-17.719h-0.375c-10.562 0-19.719 7.4062-21.906 17.719l-0.75-0.15625c2.25-10.688 11.75-18.312 22.688-18.312h0.40625c10.906 0.1875 20.062 7.7188 22.281 18.344l-0.75 0.15625zm-21.906-0.59375c-1.7812 0-3.25-1.4688-3.25-3.25 0-0.875 0.34375-1.6875 0.9375-2.3125 0.625-0.625 1.4375-0.9375 2.3125-0.9375 1.7812 0 3.25 1.4688 3.25 3.25 0 0.84375-0.34375 1.6875-0.96875 2.2812-0.625 0.625-1.4375 0.96875-2.2812 0.96875zm0-5.7188c-0.65625 0-1.2812 0.25-1.75 0.71875s-0.71875 1.0938-0.71875 1.75c0 1.375 1.0938 2.4688 2.4688 2.4688 0.65625 0 1.2812-0.25 1.75-0.75s0.71875-1.0938 0.71875-1.75c0-1.375-1.125-2.4688-2.4688-2.4688zm6.9375-2.3438c-1.4375-0.125-2.5625-0.8125-3.25-2-0.5-0.84375-0.53125-1.6875-0.09375-2.4062 0.4375-0.75 1.2188-1.125 2.25-1.0938 1.4062 0.0625 2.5625 0.75 3.3125 1.9062 0.6875 1.0938 0.46875 1.9375 0.15625 2.4688-0.5625 1-1.5938 1.125-2.3125 1.125zm-1.3125-4.75c-0.46875 0-1.0312 0.125-1.4062 0.71875-0.28125 0.5-0.25 1.0312 0.09375 1.625 0.59375 0.96875 1.4688 1.5312 2.625 1.625 0.84375 0 1.3438-0.21875 1.625-0.75 0.28125-0.5 0.25-1.0312-0.15625-1.6562-0.625-0.96875-1.5312-1.5-2.6875-1.5625h-0.125zm-12.719 4.75c-0.96875 0-1.75-0.40625-2.1562-1.0938s-0.375-1.5625 0.09375-2.4062c0.8125-1.4062 2.7188-2.2812 4.1562-1.9375 0.71875 0.1875 1.2812 0.625 1.5312 1.1875 0.28125 0.59375 0.25 1.2812-0.03125 1.9375-0.625 1.3438-2.0938 2.2812-3.5938 2.2812zm1.375-4.75c-1.0312 0-2.2188 0.65625-2.75 1.625-0.3125 0.59375-0.375 1.1875-0.09375 1.625 0.25 0.4375 0.8125 0.71875 1.4688 0.71875 1.1875 0 2.4062-0.78125 2.875-1.8438 0.21875-0.46875 0.21875-0.90625 0.0625-1.2812-0.1875-0.375-0.53125-0.65625-1.0312-0.78125-0.15625-0.03125-0.34375-0.0625-0.53125-0.0625z" />
    </g>
</svg>