<svg width="21" height="21" viewBox="0 0 21 21" fill="none" xmlns="http://www.w3.org/2000/svg">
<g clip-path="url(#clip0_214_1313)">
<path fill-rule="evenodd" clip-rule="evenodd" d="M20.3438 7.21875C20.3438 6.49392 19.7564 5.90625 19.0312 5.90625H1.96875C1.24359 5.90625 0.65625 6.49392 0.65625 7.21875V19.0312C0.65625 19.7561 1.24359 20.3438 1.96875 20.3438H19.0312C19.7564 20.3438 20.3438 19.7561 20.3438 19.0312V7.21875ZM14.1291 13.6815C14.3194 13.5617 14.4375 13.3514 14.4375 13.125C14.4375 12.8986 14.3194 12.6883 14.1291 12.5685L8.87908 9.28725C8.67564 9.16092 8.42298 9.15403 8.21298 9.26986C8.00298 9.38536 7.875 9.6052 7.875 9.84375V16.4062C7.875 16.6448 8.00298 16.8646 8.21298 16.9801C8.42298 17.096 8.67564 17.0891 8.87908 16.9627L14.1291 13.6815Z" fill="#818181"/>
<path fill-rule="evenodd" clip-rule="evenodd" d="M3.9375 4.59375H17.0625C17.4248 4.59375 17.7188 4.29975 17.7188 3.9375C17.7188 3.57525 17.4248 3.28125 17.0625 3.28125H3.9375C3.57525 3.28125 3.28125 3.57525 3.28125 3.9375C3.28125 4.29975 3.57525 4.59375 3.9375 4.59375Z" fill="#818181"/>
<path fill-rule="evenodd" clip-rule="evenodd" d="M5.90628 1.96875H15.0938C15.456 1.96875 15.75 1.67475 15.75 1.3125C15.75 0.95025 15.456 0.65625 15.0938 0.65625H5.90628C5.54406 0.65625 5.25006 0.95025 5.25006 1.3125C5.25006 1.67475 5.54406 1.96875 5.90628 1.96875Z" fill="#818181"/>
</g>
<defs>
<clipPath id="clip0_214_1313">
<rect width="21" height="21" fill="white"/>
</clipPath>
</defs>
</svg>
