<svg width="25" height="25" viewBox="0 0 25 25" fill="none" xmlns="http://www.w3.org/2000/svg">
<path d="M13.3929 18.75H4.46429C2.94644 18.75 1.78572 17.5893 1.78572 16.0714V8.92857C1.78572 7.41071 2.94644 6.25 4.46429 6.25H13.3929C14.9107 6.25 16.0714 7.41071 16.0714 8.92857V16.0714C16.0714 17.5893 14.9107 18.75 13.3929 18.75ZM22.3214 17.8571H21.4286C21.1607 17.8571 20.9821 17.7679 20.8036 17.5893L18.125 14.9107C17.9464 14.7321 17.8571 14.5536 17.8571 14.2857V10.7143C17.8571 10.4464 17.9464 10.2679 18.125 10.0893L20.8036 7.41071C20.9821 7.23214 21.1607 7.14286 21.4286 7.14286H22.3214C22.8571 7.14286 23.2143 7.5 23.2143 8.03571V16.9643C23.2143 17.5 22.8571 17.8571 22.3214 17.8571Z" fill="white"/>
</svg>
