<svg width="182" height="45" viewBox="0 0 182 45" fill="none" xmlns="http://www.w3.org/2000/svg">
<path d="M4.08033 15.4082H18.5943L18.0739 19.2421H8.46189L7.94158 23.076H16.7047L11.6933 26.9098H7.39389L6.32588 34.5776H1.39662L4.08033 15.4082Z" fill="#11EA3A"/>
<path d="M19.8146 20.6661L20.554 15.4082H25.4832L25.3189 16.6953L19.8146 20.6661ZM19.6503 21.871L25.1272 17.9003L22.7995 34.5776H17.8703L19.6503 21.871ZM28.2827 15.4082H43.3443L42.824 19.2421H32.6642L32.1439 23.076H41.4548L36.4433 26.9098H31.5962L31.0759 30.7437H41.4548L40.9344 34.5776H25.599L28.2827 15.4082ZM45.5586 15.4082H50.4879L48.3519 30.7437H57.6353L57.115 34.5776H42.8749L45.5586 15.4082ZM61.7381 15.4082H76.1972C76.9458 15.4082 77.603 15.5269 78.1689 15.7642C78.7349 16.0016 79.2004 16.3393 79.5656 16.7775C79.949 17.1974 80.2137 17.7086 80.3597 18.311C80.524 18.9135 80.5514 19.589 80.4419 20.3375L79.1274 29.6483C79.0179 30.3786 78.7988 31.0449 78.4702 31.6474C78.1598 32.2316 77.7582 32.7337 77.2653 33.1536C76.7723 33.5735 76.2064 33.9112 75.5674 34.1668C74.9467 34.4041 74.2621 34.5411 73.5135 34.5776H59.0544L61.7381 15.4082ZM64.5313 30.7437H71.3775C72.1808 30.7437 72.8654 30.479 73.4314 29.9496C73.9973 29.4019 74.3442 28.6807 74.472 27.7862L75.2388 22.1997C75.3666 21.3051 75.2297 20.5931 74.828 20.0637C74.4264 19.516 73.8239 19.2421 73.0206 19.2421H66.1197L64.5313 30.7437Z" fill="#E0E0E0"/>
<path d="M84.9871 14.8307H99.501L98.9807 18.6645H89.3686L88.8483 22.4984H97.6114L92.6 26.3323H88.3006L87.2326 34H82.3034L84.9871 14.8307Z" fill="#11EA3A"/>
<path d="M101.461 14.8307H106.39L104.254 30.1661H113.537L113.017 34H98.777L101.461 14.8307ZM116.901 20.0885L117.64 14.8307H122.569L122.405 16.1177L116.901 20.0885ZM116.736 21.2935L122.213 17.3227L119.886 34H114.956L116.736 21.2935ZM127.149 34C126.419 34 125.761 33.8813 125.177 33.644C124.611 33.4067 124.137 33.078 123.753 32.6581C123.388 32.22 123.123 31.6997 122.959 31.0972C122.813 30.4765 122.795 29.801 122.904 29.0707L124.219 19.7599C124.328 19.0114 124.538 18.3359 124.849 17.7335C125.177 17.131 125.588 16.6198 126.081 16.1999C126.574 15.7617 127.14 15.424 127.779 15.1867C128.418 14.9493 129.102 14.8307 129.833 14.8307H140.65L137.939 18.6645H131.941C131.138 18.6645 130.453 18.9384 129.887 19.4861C129.34 20.0155 129.002 20.7275 128.874 21.6221L128.107 27.2086C127.98 28.1031 128.107 28.8243 128.491 29.372C128.892 29.9014 129.495 30.1661 130.298 30.1661H136.706L139.417 34H127.149ZM154.937 14.8307H161.837L146.995 28.2492L146.201 34H141.272L143.955 14.8307H148.884L148.008 21.1018L154.937 14.8307ZM153.513 23.6212L160.633 34H154.225L149.487 27.099L153.513 23.6212ZM172.169 22.5532C173.575 22.5532 174.762 22.6627 175.729 22.8818C176.697 23.0826 177.473 23.3838 178.057 23.7855C178.659 24.1689 179.088 24.6527 179.344 25.2369C179.6 25.8211 179.727 26.4874 179.727 27.236C179.727 28.0575 179.6 28.879 179.344 29.7006C179.107 30.5039 178.742 31.225 178.249 31.864C177.774 32.503 177.181 33.0233 176.469 33.4249C175.775 33.8083 174.972 34 174.059 34H160.914L163.625 30.1661H172.662C173.356 30.1661 173.858 29.9653 174.168 29.5637C174.497 29.162 174.698 28.7056 174.771 28.1944C174.862 27.5555 174.634 27.099 174.086 26.8252C173.538 26.5331 172.717 26.387 171.622 26.387H169.075C167.048 26.387 165.57 25.9854 164.638 25.1821C163.707 24.3606 163.242 23.2013 163.242 21.7042C163.242 20.9192 163.36 20.1251 163.598 19.3218C163.835 18.5002 164.182 17.7608 164.638 17.1036C165.095 16.4281 165.661 15.8804 166.336 15.4605C167.012 15.0406 167.788 14.8307 168.664 14.8307H181.042L178.331 18.6645H170.827C170.481 18.6645 170.152 18.7193 169.842 18.8288C169.549 18.9384 169.285 19.0936 169.047 19.2944C168.828 19.4769 168.646 19.696 168.5 19.9516C168.354 20.189 168.262 20.4354 168.226 20.691C168.135 21.3482 168.363 21.8229 168.91 22.115C169.458 22.4071 170.28 22.5532 171.375 22.5532H172.169Z" fill="#E0E0E0"/>
</svg>
