<svg width="18" height="18" viewBox="0 0 18 18" fill="none" xmlns="http://www.w3.org/2000/svg">
<g clip-path="url(#clip0_278_1849)">
<path d="M10.6491 10.0146L17.6579 3.00554C18.114 2.54963 18.114 1.81249 17.6579 1.35658C17.202 0.900671 16.4649 0.900671 16.009 1.35658L8.9999 8.36564L1.99106 1.35658C1.53493 0.900671 0.798003 0.900671 0.342093 1.35658C-0.114031 1.81249 -0.114031 2.54963 0.342093 3.00554L7.35093 10.0146L0.342093 17.0237C-0.114031 17.4796 -0.114031 18.2167 0.342093 18.6726C0.5693 18.9 0.868044 19.0143 1.16657 19.0143C1.4651 19.0143 1.76363 18.9 1.99106 18.6726L8.9999 11.6636L16.009 18.6726C16.2364 18.9 16.5349 19.0143 16.8334 19.0143C17.132 19.0143 17.4305 18.9 17.6579 18.6726C18.114 18.2167 18.114 17.4796 17.6579 17.0237L10.6491 10.0146Z" fill="#E0E0E0"/>
</g>
<defs>
<clipPath id="clip0_278_1849">
<rect width="18" height="17.4366" fill="white" transform="translate(0 0.217529)"/>
</clipPath>
</defs>
</svg>
