<svg width="364" height="129" viewBox="0 0 364 129" fill="none" xmlns="http://www.w3.org/2000/svg">
<path d="M187.569 0.543121C186.951 0.800949 184.993 2.50267 183.19 4.41064C181.387 6.31863 177.42 10.3409 174.381 13.3833C167.942 19.7776 167.375 21.1699 169.333 25.2437C170.827 28.3378 176.596 36.1244 177.472 36.1244C178.348 36.1244 177.627 34.8868 174.999 31.999C173.866 30.7098 172.784 29.266 172.63 28.7503C172.321 27.7705 172.784 24.264 173.248 24.264C173.763 24.264 176.957 26.6876 179.739 29.266C182.623 31.999 183.963 32.4631 185.766 31.4833C187.26 30.7098 187.414 29.5238 186.332 27.358C185.148 25.089 185.045 23.3358 185.869 21.4793C186.693 19.6745 190.35 19.1073 192.411 20.448C194.369 21.6856 195.038 22.7169 195.09 24.3671C195.09 26.3266 193.184 28.2862 190.196 29.3175C187.26 30.3489 186.641 31.9474 188.908 32.5662L190.196 32.8756L188.908 33.1851C188.187 33.3913 186.229 33.7523 184.581 34.0617C180.666 34.7321 178.708 35.9181 177.42 38.3418C176.184 40.7654 176.133 45.2517 177.317 49.7896C179.326 57.3184 179.223 60.7734 176.957 62.9392C175.257 64.5378 173.299 64.2284 170.672 62.011C166.551 58.556 164.645 57.3184 163.924 57.5763C162.687 58.0404 163.666 59.2264 165.881 59.9999C167.787 60.6703 168.045 60.9281 167.942 62.1657C167.89 62.9908 168.045 63.919 168.302 64.2284C168.921 64.9503 168.457 65.5176 167.272 65.5176C166.396 65.5176 163.1 62.3204 162.224 60.5672C161.915 59.9483 160.987 57.6278 160.112 55.3073C157.639 48.5005 155.888 46.4893 150.685 44.4267C149.242 43.8594 148.779 42.6734 149.809 42.0546C150.066 41.8483 150.53 41.1264 150.788 40.456C151.045 39.7856 151.457 39.2184 151.715 39.2184C152.694 39.2184 157.072 43.55 158 45.458C158.566 46.5409 159.339 48.8099 159.751 50.46C160.112 52.1102 160.678 53.915 160.987 54.5338C161.606 55.6683 163.048 57.009 163.357 56.6996C163.769 56.2355 160.06 45.8705 158.927 44.3751C155.991 40.3529 142.906 32.7725 139.609 33.1335C137.961 33.3398 137.909 33.2882 137.6 30.9677C136.518 23.7483 132.964 21.5309 127.04 24.5218C124.464 25.8625 123.382 27.1517 124.361 27.8221C124.67 27.9768 125.391 29.7301 126.061 31.7412C127.503 36.2791 128.379 37.6714 129.718 37.6714C130.285 37.6714 130.594 37.8777 130.44 38.1871C130.285 38.4449 129.564 38.7027 128.894 38.7027C127.452 38.7027 125.082 41.3326 124.67 43.3953C124.515 44.1688 123.743 45.458 122.919 46.2315L121.425 47.6754L119.673 45.6127C118.437 44.2204 117.87 43.0859 117.819 41.9514C117.819 39.6825 117.149 38.0839 115.243 35.9181C113.234 33.7007 111.637 33.4945 110.143 35.4024C108.082 38.0324 109.061 40.3529 113.285 43.0859C114.264 43.6532 114.985 44.7876 115.449 46.4378C116.891 51.3367 118.797 53.6572 121.322 53.6572C122.094 53.6572 123.64 52.6258 125.546 50.821C128.843 47.6238 129.152 47.727 129.152 52.0586C129.152 53.3993 129.512 54.9463 129.976 55.6167C130.697 56.6996 131.006 56.7512 134.973 56.4418C139.197 56.1324 139.197 56.1324 143.576 58.4013C147.748 60.5156 147.954 60.7219 148.315 62.6814C148.83 65.7754 147.645 69.1273 143.627 76.0373C141.618 79.3891 139.815 82.38 139.558 82.6379C139.249 82.9473 138.27 82.38 136.879 81.0908L134.767 78.9766L135.797 76.9655C136.364 75.8826 137.703 74.1809 138.836 73.1495L140.845 71.2931L138.012 70.9837C133.633 70.468 132.758 70.1586 132.758 69.0757C132.758 67.735 130.903 66.6521 124.412 64.3315C123.691 64.0737 123.64 63.7127 124.052 61.8048C125.082 56.9059 124.825 57.2669 127.606 57.2669C130.388 57.2669 131.058 56.4934 128.74 55.9777C126.679 55.5651 122.403 56.5965 121.064 57.8857C119.57 59.278 117.613 64.4862 115.707 72.0666C113.904 79.4923 113.852 80.8846 115.346 81.4518C116.119 81.7096 116.273 81.9675 115.81 82.2253C115.449 82.4832 114.728 82.2253 114.161 81.7096C113.182 80.833 113.079 80.833 111.07 81.9675C109.525 82.8441 108.392 83.102 106.331 82.9473C103.755 82.7926 103.652 82.8441 103.498 84.1849C103.292 86.0413 105.043 87.1758 108.186 87.1758C109.834 87.1758 111.431 87.5883 113.079 88.4649C117.458 90.7854 119.879 89.8057 119.879 85.6803C119.879 82.6379 121.219 77.7905 123.022 74.2324C124.773 70.6743 124.876 69.643 123.485 69.643C122.661 69.643 122.249 70.468 121.116 74.1293C119.931 78.0484 117.819 81.8643 117.819 80.1111C117.819 79.3891 120.806 66.3942 121.219 65.3113C121.682 64.1253 122.352 64.28 122.558 65.6207C122.661 66.4974 123.279 66.9099 125.031 67.3224C126.318 67.6834 128.328 68.4569 129.564 69.0757C131.367 70.0039 131.676 70.3649 131.264 71.0868C130.44 72.6854 128.637 78.5641 128.637 79.7501C128.637 81.4002 129.976 82.5347 131.882 82.5347C133.582 82.5863 134.509 83.102 135.849 84.8037C136.57 85.7834 136.518 85.7834 134.2 85.474C132.088 85.1646 131.676 85.2678 131.212 86.1444C130.903 86.7116 130.234 87.1758 129.718 87.1758C129.203 87.1758 128.482 87.5367 128.121 87.9493C127.761 88.3618 127.04 88.7228 126.525 88.7228C125.958 88.7228 124.67 89.7025 123.588 90.837C118.849 96.1484 118.437 96.4578 116.943 96.4578C116.119 96.4578 114.367 95.7359 113.028 94.9108C108.649 92.1262 107.104 91.6621 101.643 91.6105L96.5948 91.5589L94.8949 89.5994C92.7313 87.0726 91.8555 83.5661 92.1646 78.6156C92.4222 75.2122 92.6282 74.4387 94.4312 71.8603C96.2857 69.1273 96.4403 68.7147 96.2857 65.6723C96.1827 62.6814 96.3373 62.011 98.2433 58.4529C100.458 54.2244 100.767 52.007 99.4796 50.1506C98.2948 48.4489 96.1312 47.6754 95.3585 48.7583C94.8433 49.4802 94.7403 49.4287 94.4827 48.4489C93.8131 45.9221 86.0859 48.5005 85.1072 51.5945C84.6436 53.0384 83.9739 52.8837 83.6648 51.182C83.0466 48.0879 79.5952 45.3549 75.4225 44.7361C72.7438 44.3235 73.4135 45.097 77.6891 47.2113C79.6467 48.2426 81.2436 49.2224 81.2436 49.4287C81.2436 50.3053 79.9558 51.0788 78.5134 51.0788C77.0195 51.0788 76.7104 50.821 72.1256 45.7674C69.6014 42.9828 67.0257 42.0546 64.0894 42.8797C62.3895 43.3438 61.1531 44.5814 61.1531 45.819C61.1531 46.0768 61.9773 47.5723 63.0591 49.0677C65.0167 51.9039 67.4894 57.0606 68.056 59.4842C68.3651 60.7734 68.2621 60.8766 67.1803 60.6187C66.5106 60.4125 64.1409 60.7734 61.9258 61.3407C59.7107 61.9595 56.8259 62.4236 55.5381 62.4236C53.323 62.4236 53.0654 62.2689 51.7776 60.2062C51.0048 59.0201 49.7685 57.4216 49.0473 56.7512C47.2958 55.101 46.3171 55.7198 44.8232 59.3811C43.4838 62.733 42.0414 64.28 39.9808 64.7441C39.1051 64.9503 36.89 66.4974 35.0355 68.1475C32.3567 70.5712 31.3265 71.19 29.9871 71.19C29.0083 71.19 28.1326 70.9837 27.9265 70.7259C27.5144 70.0555 29.7295 68.6116 31.1204 68.6116C32.5113 68.6116 32.7173 67.3224 31.481 66.6521C30.8628 66.2911 31.481 65.6723 34.5718 63.7643C36.7354 62.4236 39.0536 60.5672 39.7748 59.6389C41.0626 57.9888 43.0717 52.6774 43.1232 50.9757C43.1232 50.5116 43.9989 49.3771 45.0292 48.3973C49.5109 44.3235 49.82 43.9626 49.82 42.3124C49.82 41.0748 49.3049 40.1466 47.811 38.6512C46.008 36.8463 45.5443 36.64 43.2777 36.64C41.4747 36.64 40.2899 36.9494 39.4142 37.6714C38.1778 38.6512 38.0748 38.6512 37.2506 37.723C36.1688 36.5369 36.2203 35.454 37.3536 34.4227C38.5384 33.3398 40.0323 33.2882 40.0323 34.3195C40.0323 34.7321 40.3929 35.093 40.805 35.093C41.2172 35.093 41.5778 34.7321 41.5778 34.3195C41.5778 33.2366 43.5353 32.36 45.0807 32.7725C46.111 33.0303 46.2655 33.1851 45.6989 33.546C45.0807 33.907 45.2353 34.1133 46.214 34.4742C46.9352 34.7321 47.7595 34.8868 48.0685 34.7321C48.3776 34.6289 48.9443 34.8868 49.3049 35.3509C49.8715 36.0212 49.8715 36.2791 49.2018 36.9494C48.5322 37.6198 48.6352 37.9292 50.1291 39.4762C52.0866 41.5905 52.2927 41.5905 54.9714 40.2497C56.1047 39.6825 57.4441 39.2184 58.0623 39.2184C58.6289 39.2184 59.0926 38.9606 59.0926 38.6512C59.0926 37.8777 56.1563 38.548 54.0957 39.8372L52.3957 40.817L51.1594 39.3731C50.2836 38.3418 50.0776 37.723 50.4382 37.3104C51.3139 36.2275 50.5927 35.2993 47.4504 33.546C44.6686 31.9474 44.3595 31.8443 42.2474 32.4115C41.0111 32.7725 39.5172 33.0303 38.8475 33.0303C37.1991 33.0303 35.3961 34.4227 35.3961 35.7118C35.3961 36.3306 35.8597 37.3104 36.4263 37.9292C36.993 38.4965 37.5597 39.9403 37.7142 41.0232C38.0233 43.7047 39.9293 45.4064 42.505 45.4064C43.5353 45.4064 44.7716 45.1486 45.1838 44.8908C45.8019 44.5298 45.5959 44.3751 44.411 44.3751C42.2474 44.3751 39.6202 42.6218 39.2081 40.9717C38.899 39.8372 39.1051 39.3215 40.2384 38.3418C42.3505 36.5369 44.8747 36.7432 47.0383 38.909C49.717 41.5905 49.4594 42.8797 45.4413 46.6441C43.5868 48.3973 42.0929 50.099 42.0929 50.4084C42.0929 50.7694 41.5778 52.6258 40.9596 54.5338C39.6717 58.5045 37.3021 61.2375 33.0779 63.6612C31.6871 64.4862 29.3689 66.0333 27.9265 67.1162C23.6509 70.2618 21.0751 71.3447 17.0055 71.6025C14.0692 71.8088 13.245 71.7056 13.1935 71.1384C13.0389 69.0757 13.4511 66.4974 14.2753 63.9706C15.3571 60.7219 15.048 59.9483 12.5753 59.8968C11.6481 59.8452 10.2572 59.7936 9.38145 59.7421C8.09359 59.5874 7.83602 59.7421 7.99057 60.6187C8.04208 61.186 8.19662 62.733 8.35116 64.1253C8.60874 67.0646 8.86631 67.5803 10.2572 67.5803C11.2875 67.5803 11.2875 67.6318 10.4117 68.6116C9.9481 69.1273 7.93905 70.2102 5.98152 70.9321C2.06644 72.4791 0.62405 73.8715 0.108909 76.7592C-0.869859 82.5863 4.89972 86.7632 11.339 84.9068C15.2541 83.7723 18.2934 81.4002 19.5297 78.5125C20.663 75.9341 22.8266 73.2526 23.8569 73.2526C24.166 73.2526 25.0417 72.7885 25.7629 72.2213C26.8447 71.3962 27.3084 71.2931 28.5962 71.7572C30.6568 72.4791 33.0779 71.4478 36.2718 68.4569C37.6627 67.2193 39.7748 65.7239 41.0626 65.1566C43.9474 63.8674 44.8747 62.8361 46.0595 59.5874C46.5746 58.1435 47.3473 57.009 47.7595 57.009C48.7897 57.009 51.9321 61.5985 52.0351 63.2486C52.1382 64.5378 51.8806 64.6925 49.614 65.3113C44.308 66.7036 42.8656 69.3335 45.5959 72.6854C47.811 75.47 48.8928 77.8421 48.6352 79.3891C48.4807 80.1111 47.811 82.1222 47.0383 83.8239C44.7201 89.1869 45.0292 90.3729 51.4685 100.944L55.332 107.235L55.0745 111.051C54.8169 115.434 55.4351 117.239 57.1865 116.982C58.9895 116.724 61.5652 112.805 62.2349 109.298C62.6985 107.029 63.0076 106.256 63.5743 106.462C63.9349 106.617 64.45 106.359 64.6046 105.895C64.9652 104.966 63.3682 103.523 62.3379 103.883C61.7198 104.141 58.0623 98.8299 58.0623 97.6954C58.0623 97.3345 59.0926 96.4578 60.3289 95.7359C63.2652 94.0342 64.8106 91.5074 64.9137 88.3102L65.0167 85.8866L62.3379 85.9381C59.2471 86.0413 58.8865 85.4225 60.638 83.2051C62.2349 81.1424 61.9258 80.1111 58.732 77.0686L55.7441 74.284H59.8653C67.1803 74.284 69.1378 72.0666 69.1378 63.7127C69.1378 59.1233 68.9833 58.1951 67.6439 55.3073C66.8197 53.5025 65.3773 50.9757 64.3985 49.6349C61.5137 45.5096 62.3379 43.3438 66.8197 43.3438C68.6227 43.3438 69.1378 43.6532 70.8378 45.458C76.3498 51.5945 76.3498 51.5945 78.8225 51.5945C80.1103 51.5945 81.3466 51.3367 81.5012 51.0788C82.2224 49.8928 82.7375 50.7178 83.0466 53.5025C83.2527 55.1526 83.7163 57.2153 84.0769 58.1435C84.9011 60.1031 87.992 62.2689 90.5162 62.6814C92.2161 62.9392 92.1646 62.9392 90.001 62.0626C84.1284 59.6905 83.7678 52.1617 89.3313 48.8614C90.2586 48.3458 91.598 47.9848 92.3192 48.0879L93.6585 48.2426L92.0101 50.821C88.8677 55.7714 89.0738 58.0404 92.8343 60.6187L95.1524 62.1657V65.466C95.1524 68.4569 94.9464 69.0757 93.2464 71.6025C91.4949 74.1293 91.2889 74.7997 91.0828 78.3062C90.6192 88.104 94.3282 93.0028 101.592 92.1262C104.94 91.7652 108.134 92.6419 112.152 95.1171C114.367 96.5094 115.707 96.9735 117.355 96.9735C119.261 96.9735 119.776 96.7157 121.373 94.8077C125.185 90.4245 126.525 89.2384 127.606 89.2384C128.276 89.2384 129.1 88.8259 129.512 88.3102C130.131 87.5367 130.182 87.5883 129.924 89.0837C129.718 90.0635 129.873 91.4558 130.337 92.4356C130.697 93.3638 131.418 95.7359 131.882 97.6954C132.397 99.6034 133.891 103.883 135.282 107.235C136.621 110.536 137.806 113.578 137.858 113.991C137.909 114.403 138.064 115.847 138.218 117.188C138.476 119.147 138.321 120.024 137.446 121.365C136.158 123.479 136.055 124.613 137.136 125.026C139.042 125.748 141.206 123.943 144.297 119.044C146.667 115.28 147.182 113.062 145.894 112.083C144.503 111.103 143.782 111.258 142.03 112.959C140.536 114.403 139.455 114.919 139.455 114.197C139.455 113.991 140.279 113.114 141.361 112.186L143.215 110.587L141.824 104.657C139.815 96.3547 138.991 94.0342 138.012 93.6216C137.291 93.3638 137.291 93.2091 137.909 92.8481C138.476 92.4872 138.527 92.0746 137.961 90.3213C137.291 88.0008 136.209 87.1758 133.84 87.1758C132.964 87.1758 132.243 86.9179 132.243 86.6601C132.243 85.835 135.694 86.0413 136.57 86.9179C137.446 87.8461 138.733 87.9493 139.197 87.1242C139.403 86.8148 139.094 86.4538 138.527 86.2991C137.961 86.196 137.188 85.474 136.827 84.7521C136.003 83.2567 134.664 82.4316 132.294 82.0706C129.461 81.5549 129.255 80.6267 130.852 75.6247C131.676 73.2011 132.5 71.0868 132.758 70.9321C132.964 70.7774 134.355 70.9321 135.797 71.2415L138.424 71.8088L136.364 74.1809C133.221 77.6874 133.221 78.5125 136.055 81.3487C139.403 84.649 140.176 84.3396 143.73 78.2547C149.036 69.2304 149.448 68.1991 149.448 64.3315C149.448 61.8563 149.603 60.8766 150.118 60.8766C151.251 60.8766 150.891 58.7623 149.397 56.5965C148.263 54.9463 147.954 53.8634 147.697 50.099C147.491 47.005 147.079 45.0455 146.357 43.8079C145.276 42.003 142.391 39.7341 141.206 39.7341C139.918 39.7341 140.485 40.7138 142.494 42.0546C145.07 43.8079 145.636 45.1486 145.636 49.9443C145.688 52.4196 146.048 54.9463 146.615 56.5965C147.13 58.0919 147.388 59.3295 147.182 59.3295C146.924 59.3295 144.967 58.4529 142.751 57.4216C138.733 55.5136 137.497 55.3073 132.243 55.8745C131.006 55.9777 130.955 55.823 130.697 52.8837C130.543 51.182 130.131 49.274 129.77 48.6036C129.203 47.6754 129.203 47.2629 129.718 46.6441C130.182 46.0768 130.182 45.6127 129.718 44.5814C129.409 43.8594 129.255 43.0344 129.409 42.7765C129.615 42.5187 129.409 42.3124 128.997 42.3124C128.585 42.3124 128.07 42.8797 127.915 43.55C127.709 44.4782 127.349 44.7361 126.576 44.5298C125.34 44.1688 125.34 44.272 126.576 41.7967C127.297 40.3529 128.07 39.6825 129.049 39.4762C129.821 39.27 130.852 38.9606 131.315 38.6512C131.83 38.3933 132.912 38.1871 133.736 38.1871C134.664 38.1871 135.643 37.723 136.415 36.8463C139.506 33.4429 139.506 33.4429 140.897 33.8039C142.03 34.0617 150.118 37.9292 150.685 38.4449C150.788 38.4965 150.376 39.3731 149.809 40.3013C148.16 43.0344 148.057 43.2922 148.676 44.0657C148.985 44.4267 150.169 44.9939 151.303 45.3549C154.342 46.2831 156.712 49.0161 158.515 53.8634C161.09 60.7219 161.606 61.7016 163.615 63.6096C165.83 65.827 167.736 66.6521 168.972 65.9817C169.951 65.4145 170.157 64.1768 169.281 63.8674C169.024 63.7643 168.921 63.3002 169.075 62.8361C169.384 62.011 169.642 62.0626 171.187 63.3002C174.484 65.7754 178.193 64.5378 179.636 60.464C180.305 58.5045 180.254 57.9372 179.12 53.0384C177.472 46.0252 177.214 41.0748 178.451 38.7543C179.842 36.1244 181.49 35.1446 186.281 34.3195C190.711 33.546 192.411 32.7725 190.814 32.2568C190.35 32.1021 189.578 31.8959 189.114 31.7412C187.826 31.3286 189.114 30.091 191.329 29.6785C192.36 29.5238 193.853 28.6987 194.678 27.8736C196.635 25.8625 196.532 27.0486 194.266 31.3286C191.123 37.2073 191.741 41.7452 195.966 43.911C197.408 44.6329 197.511 44.7876 196.893 45.9737C195.605 48.5005 194.935 52.7805 195.244 56.8543C195.45 59.8452 195.347 61.0828 194.832 61.5985C194.369 62.011 192.205 62.372 188.548 62.5267C181.542 62.8877 179.79 63.558 178.811 66.2911C176.751 71.9635 172.372 87.3305 172.63 88.0524C172.784 88.4649 173.351 88.7228 173.814 88.6196C174.484 88.5165 174.845 87.5367 175.308 84.8552C175.669 82.8441 176.596 79.5954 177.369 77.6358C178.142 75.6247 179.12 72.376 179.584 70.4165L180.46 66.8068L185.56 66.4974C188.393 66.3427 191.381 65.9301 192.153 65.5692C194.266 64.7441 194.832 64.8472 195.502 66.2911C196.378 68.1991 196.275 75.2122 195.296 78.2031C194.884 79.5954 194.317 82.4316 194.06 84.5458C193.338 90.2182 190.763 93.0028 187.363 91.7136C186.693 91.4558 185.714 91.4042 185.096 91.5589C184.22 91.8168 184.169 91.7652 184.787 91.3527C185.869 90.5792 184.581 90.5792 183.139 91.3527C182.572 91.6621 181.542 91.7652 180.82 91.5589C179.378 91.198 179.378 90.8886 180.923 85.4225C181.387 83.7723 181.645 82.0706 181.49 81.7096C181.026 80.5236 180.151 80.8846 180.151 82.2769C180.151 83.0504 179.842 84.2364 179.43 85.0099C179.069 85.7834 178.605 87.4852 178.399 88.8259L178.039 91.2495L174.587 90.9917C170.878 90.7339 168.869 91.3527 170.363 92.3325C170.775 92.5903 171.548 92.6934 172.063 92.5387C172.887 92.2809 172.939 92.5387 172.63 95.1171L172.269 97.9533L175.875 101.46C182.263 107.648 186.178 110.897 187.466 111C188.496 111.103 188.651 111.309 188.496 112.701C188.341 113.784 188.651 114.558 189.372 115.228C190.093 115.899 190.35 116.569 190.144 117.6C189.887 118.838 190.144 119.199 192.102 120.488C194.214 121.932 194.317 122.138 194.472 124.82C194.729 129.151 196.326 130.183 198.747 127.604C199.881 126.367 199.984 125.903 199.881 121.623C199.778 117.91 199.932 116.466 200.756 114.661C202.508 110.639 201.117 109.711 195.605 111.154C194.523 111.412 193.802 111 191.226 108.421C189.526 106.771 187.311 104.915 186.281 104.296C185.302 103.677 184.014 102.697 183.499 102.13C182.675 101.202 182.984 101.305 185.869 102.594C190.299 104.605 197.356 106.513 198.541 105.998C199.211 105.74 198.335 105.379 195.605 104.966C191.587 104.296 183.808 101.254 182.16 99.7581C181.129 98.8299 180.923 97.1798 181.645 95.9937C182.057 95.3749 182.572 95.3233 184.787 95.839C186.229 96.2 188.496 96.4578 189.784 96.4578C192.669 96.4578 195.708 97.9017 199.056 100.841C201.478 103.007 201.478 103.007 200.911 104.915C200.138 107.39 200.344 107.803 202.817 109.35C203.95 110.072 204.877 110.897 204.877 111.206C204.877 111.515 205.444 112.289 206.114 112.959C206.938 113.681 207.453 114.816 207.556 116.002C207.711 117.652 207.865 117.858 209.308 118.013C210.596 118.116 211.214 117.858 212.296 116.569C213.841 114.661 214.098 111.928 212.862 108.989C212.45 108.009 212.089 106.617 212.089 105.895C212.089 104.244 211.265 102.646 209.72 101.357L208.535 100.325L213.789 97.5923C218.477 95.1686 219.611 94.8077 223.989 94.292C228.162 93.8279 229.192 93.8795 230.686 94.5498C231.665 94.9624 233.056 95.478 233.88 95.6327C235.013 95.8906 235.219 96.2 235.013 97.1282C234.859 97.747 235.168 99.3456 235.786 100.686C236.353 101.975 237.022 104.451 237.228 106.152C237.846 110.793 240.268 113.784 241.71 111.773C242.071 111.309 242.483 108.679 242.689 105.998L242.998 101.047L248.098 94.1889C253.867 86.4538 254.331 85.474 252.992 84.0302C252.219 83.1535 252.219 83.0504 252.94 83.0504C254.073 83.0504 254.846 81.4518 254.846 79.0282C254.846 76.6561 253.713 75.4185 248.252 71.9635L245.007 69.9008L245.162 65.466C245.316 61.4954 245.522 60.6187 247.325 57.0606C248.407 54.8948 249.18 52.9868 249.025 52.7805C248.252 52.007 245.831 54.5338 244.389 57.6794C242.998 60.6703 242.792 61.7016 242.74 65.4145C242.74 70.3133 243.152 70.1071 237.589 68.0959C235.219 67.2193 233.828 67.013 231.562 67.2709C228.265 67.5803 228.007 67.374 228.522 64.2284L228.832 62.1657L230.068 63.919C231.098 65.3629 231.407 65.5176 231.871 64.8988C232.283 64.3315 232.798 64.2284 233.674 64.5894C235.425 65.2082 236.25 64.28 235.065 62.9908C234.137 62.011 234.189 61.9595 236.404 61.8048L238.619 61.6501L236.868 60.6703L235.065 59.7421L236.456 58.9686C238.98 57.6794 238.156 57.1122 234.292 57.4731L230.738 57.8341L230.428 54.8432C230.222 53.1931 230.068 50.8726 230.068 49.6349C230.068 47.8301 229.913 47.4176 229.192 47.5723C228.677 47.6754 228.265 48.2942 228.162 49.0161C228.059 49.7896 227.441 50.6663 226.513 51.182C224.453 52.368 224.556 53.7087 226.926 55.823C228.574 57.3184 228.832 57.8341 228.471 58.7623C228.059 59.9483 228.059 59.9483 225.947 58.2466C223.268 56.1324 219.817 51.8008 219.817 50.5631C219.817 49.1193 220.795 48.8099 221.877 49.7896C222.444 50.3053 223.216 50.5631 223.732 50.3569C224.504 50.0475 224.504 49.9443 223.68 49.0161C222.547 47.7785 222.856 47.366 227.235 44.0141C231.098 41.0748 234.962 39.2184 237.228 39.2184C238.619 39.2184 239.083 39.5278 239.804 40.8685C241.298 43.6532 243.359 45.5096 244.801 45.3033C246.655 45.097 246.604 44.2204 244.698 43.3953C242.895 42.6218 242.483 41.7967 243.771 41.7967C244.234 41.7967 245.162 41.2295 245.831 40.5076C246.81 39.5794 247.119 38.7027 247.119 37.001C247.119 34.268 246.192 32.8756 244.337 32.8756C242.431 32.8756 242.019 33.4429 241.246 36.6916L240.577 39.4762L239.649 37.4136C238.928 35.7634 238.877 35.093 239.34 33.4429C239.701 32.36 240.525 31.1224 241.195 30.6583C242.38 29.8848 242.534 29.8848 244.08 31.1739C244.955 31.8959 246.037 32.5147 246.501 32.5147C246.965 32.5147 247.892 32.6694 248.561 32.8241C250.674 33.4429 249.695 32.2568 246.604 30.5551C244.131 29.1628 243.513 28.5956 243.513 27.5642C243.513 25.8625 245.265 24.264 247.068 24.264C248.871 24.264 249.952 25.3469 249.025 26.2751C248.561 26.7392 248.561 26.997 249.128 27.358C249.695 27.6674 249.746 27.9768 249.283 28.4925C248.355 29.6785 249.386 30.6583 251.189 30.2973C252.631 29.9879 252.786 30.091 252.786 31.1739C252.786 31.8443 252.116 33.7523 251.24 35.4024C250.416 37.0526 249.695 39.0637 249.695 39.8372C249.695 40.7654 249.437 41.2811 248.922 41.2811C247.634 41.2811 247.171 43.3438 247.943 45.6643C250.055 52.2133 251.549 54.9979 254.434 57.8857C256.082 59.5358 257.989 60.9797 258.71 61.186C261.337 61.8563 262.625 58.917 261.337 55.1526C260.461 52.6258 260.307 49.6349 260.976 48.552C261.337 47.9848 261.852 48.2426 263.294 49.6865C265.252 51.6461 267.776 52.4711 270.043 51.9039C271.176 51.5945 271.331 51.7492 271.331 52.8321C271.331 54.3275 273.597 56.3902 276.225 57.3184C277.821 57.9372 278.027 58.1435 277.77 59.3811C277.049 62.733 281.118 62.4236 286.115 58.7107C290.288 55.6167 302.394 49.5318 304.3 49.5318C305.742 49.5318 305.794 49.6349 305.536 51.182C305.382 52.1102 304.506 55.101 303.63 57.7825C301.26 65.1051 301.415 67.374 304.969 74.4903C309.966 84.4427 310.069 87.4852 305.897 96.4062C304.454 99.4487 303.269 102.388 303.269 103.007C303.269 103.574 302.909 104.244 302.445 104.399C301.776 104.657 301.672 105.173 301.879 106.513C302.136 108.215 302.136 108.267 300.282 108.421C297.5 108.628 297.551 110.02 300.488 114.042C303.733 118.477 305.33 120.179 306.412 120.179C307.906 120.179 308.009 119.405 307.133 114.97C306.154 109.762 306.154 106.977 307.081 106.617C307.442 106.462 308.627 103.883 309.709 100.893C310.79 97.9017 311.924 95.4265 312.233 95.4265C312.542 95.4265 313.933 95.7874 315.272 96.2C316.612 96.6125 319.445 97.0766 321.557 97.2829C324.751 97.5923 325.42 97.4892 325.42 96.8704C325.42 95.7874 324.39 94.7045 322.175 93.4154C321.145 92.745 319.651 91.4558 318.878 90.476C317.693 88.8775 317.487 88.7743 316.663 89.4963C315.581 90.476 314.603 90.476 314.603 89.5478C314.603 88.2071 315.684 85.8866 316.045 86.4538C316.663 87.382 318.157 87.6914 319.496 87.1758C320.424 86.8148 321.557 85.0099 324.133 79.647C325.987 75.7794 327.481 72.0666 327.481 71.4478C327.481 69.7977 326.296 68.9726 320.578 66.8068C317.796 65.7239 314.757 64.2284 313.881 63.4033L312.284 61.9595L313.624 61.9079C315.324 61.9079 316.457 60.6703 318.724 56.2871C320.99 51.9555 322.021 51.6976 324.545 54.7916C326.193 56.8028 327.584 57.6794 333.869 60.6703C334.951 61.186 336.805 62.7845 337.99 64.1253C339.123 65.5176 340.617 66.8583 341.287 67.1162C342.678 67.6318 344.481 66.9099 344.481 65.7754C344.481 64.4347 345.459 64.4347 346.644 65.7754C347.778 67.1162 350.302 67.5287 350.92 66.5489C351.126 66.2395 351.847 66.4974 352.723 67.2193C355.968 69.9524 361.48 69.0241 363.283 65.466C365.808 60.6187 361.274 54.5338 355.762 55.3073C354.474 55.5136 354.268 55.3589 354.268 54.3791C354.268 53.3478 352.156 51.0788 351.178 51.0788C350.971 51.0788 350.25 51.4914 349.632 52.007C348.138 53.2446 348.653 55.3073 350.765 56.2871L352.311 57.0606L349.323 59.9999C347.623 61.6501 345.82 63.0939 345.202 63.2486C344.481 63.4549 342.163 62.3204 337.887 59.7421C332.323 56.4418 331.602 55.823 331.86 54.7916C332.169 53.5025 331.963 53.3993 330.572 54.276C329.748 54.7916 329.284 54.6885 327.636 53.3478C326.554 52.4711 325.008 50.7178 324.133 49.3771C322.227 46.4378 321.093 45.9221 317.59 46.2831C315.118 46.5409 314.757 46.4378 313.572 45.2002C312.593 44.1173 312.439 43.6016 312.851 42.9828C313.572 41.7967 314.603 41.5389 314.603 42.5187C314.603 43.8594 316.56 45.4064 318.157 45.4064C320.063 45.4064 321.814 43.3438 321.814 41.0232V39.3215L323.721 40.3013C325.73 41.3326 329.026 41.642 329.026 40.817C329.026 40.5591 327.223 39.6825 325.06 38.8574C321.299 37.4136 320.99 37.2073 319.857 34.8868C318.775 32.6178 317.281 31.4833 315.375 31.4833C314.139 31.4833 311.512 34.1133 311.512 35.3509C311.512 36.1759 311.151 36.64 310.224 36.8463C309.451 37.0526 308.575 37.9292 307.906 39.1668C306.875 41.2295 306.566 41.4358 303.372 42.0546C301.518 42.4156 300.282 44.0657 301.157 45.097C301.569 45.5611 300.951 46.0768 298.736 47.1597C296.263 48.3973 293.276 50.0475 285.909 54.5338C284.673 55.2557 284.261 57.2669 285.394 57.2669C285.703 57.2669 285.188 57.9888 284.209 58.8139C283.23 59.6389 282.097 60.2062 281.685 60.1031C281.324 59.9483 280.655 60.1031 280.243 60.4125C279.109 61.3922 278.388 60.2578 279.367 58.917C279.882 58.1951 280.706 57.7825 281.685 57.7825C282.715 57.7825 283.179 57.5763 283.076 57.1122C282.767 56.2355 280.706 56.0293 279.831 56.7512C278.852 57.5763 276.791 57.0606 274.318 55.4104C272 53.915 271.846 52.729 273.7 51.0273C277.615 47.4691 276.946 41.2811 272.464 39.0121C270.97 38.2902 266.643 37.9808 265.046 38.4965C264.531 38.6512 264.119 39.0637 264.119 39.4762C264.119 39.8372 263.552 40.5076 262.882 40.9201C262.11 41.4358 261.543 42.4671 261.337 43.7047C261.131 44.7876 260.616 46.6441 260.152 47.8301C259.637 49.2224 259.482 50.7694 259.688 52.2133C260.667 59.1233 260.667 59.8452 259.792 60.1546C258.916 60.5156 255.979 58.556 253.919 56.2871C253.301 55.5136 252.322 53.7087 251.755 52.2133C251.189 50.7178 250.261 48.552 249.695 47.4691C248.51 45.2002 248.304 42.1061 249.283 42.4156C249.643 42.5703 250.107 43.8079 250.313 45.1486C250.622 47.4176 251.034 48.0364 254.28 51.182C257.576 54.4307 258.967 55.3589 258.967 54.276C258.967 54.0181 257.885 52.8321 256.598 51.6461C255.258 50.46 254.331 49.3255 254.537 49.1708C254.692 48.9646 255.361 49.3255 256.031 49.9443C257.422 51.2335 258.452 51.3882 258.452 50.3053C258.452 49.8928 257.422 47.8301 256.134 45.7158C254.434 42.9312 253.352 41.7452 252.27 41.3326C250.364 40.6623 250.364 39.9403 252.27 36.1244C254.228 32.2568 254.28 30.2973 252.477 28.6471C251.704 27.9252 250.88 27.358 250.622 27.358C250.364 27.358 250.261 26.8939 250.467 26.3782C250.88 25.0375 249.077 23.2326 247.377 23.2326C245.677 23.2326 243.204 24.5218 242.792 25.5531C242.637 26.0172 242.483 27.0486 242.483 27.8221C242.483 28.8534 242.122 29.3175 240.937 29.7816C238.928 30.5551 237.64 33.4945 238.053 36.1759C238.362 38.0324 238.31 38.0839 236.404 38.3933C233.262 38.8574 227.544 42.003 224.092 45.1486C222.341 46.6956 220.692 47.9848 220.383 47.9848C219.559 47.9848 218.323 50.099 218.632 51.0273C219.301 52.729 223.371 57.5763 225.432 59.0717L227.595 60.6187L227.286 63.5065C226.822 67.9412 226.977 68.0959 231.716 68.0959C234.55 68.0959 236.507 68.4053 238.362 69.1273C239.804 69.6945 241.659 70.1586 242.483 70.1586C244.234 70.1586 252.477 75.3153 253.301 76.8623C253.867 77.9452 253.97 80.6267 253.507 81.1424C253.301 81.2971 252.631 81.0908 251.961 80.6267C251.086 80.0595 250.055 79.9048 248.561 80.1111C246.861 80.3173 245.831 80.9877 243.101 83.6692C241.246 85.474 240.525 85.9897 241.504 84.8552C242.483 83.7208 244.337 81.8643 245.677 80.7299C248.458 78.4094 248.767 77.6358 246.81 78.0999C245.677 78.4094 244.749 77.8421 240.783 74.645C234.447 69.5398 233.468 68.9726 231.922 69.2304C231.201 69.3851 230.48 69.282 230.325 69.0757C229.81 68.2506 228.11 68.6116 227.338 69.6945C225.741 71.9635 227.75 76.7076 231.716 80.0595C234.704 82.5863 235.322 83.7208 234.704 85.835C233.365 90.5276 239.495 90.3213 246.552 85.474C249.54 83.4114 251.446 83.0504 252.167 84.4427C252.837 85.7319 252.528 86.3507 249.18 90.7854C247.583 92.8997 245.522 95.7359 244.595 97.0766C242.637 100.016 241.143 100.325 240.319 98.0048C239.753 96.3547 238.722 96.2 238.465 97.6954C238.259 98.7783 239.237 100.016 240.834 100.635C242.122 101.15 242.122 101.254 241.143 109.195C240.68 113.166 239.083 111.412 238.31 106.049C238.104 104.296 237.383 101.769 236.816 100.428C235.528 97.5407 235.889 96.561 238.413 95.7359C239.598 95.3749 240.474 94.6014 241.04 93.4154C241.504 92.4356 242.174 91.4042 242.431 91.1464C243.255 90.3213 243.101 89.2384 242.277 89.2384C241.865 89.2384 241.092 90.0635 240.474 91.0433C239.546 92.6419 236.713 94.9108 235.631 94.9108C235.065 94.9108 235.734 92.7966 236.662 91.7136C237.537 90.7339 237.074 89.5478 235.992 89.9604C235.58 90.1151 233.519 89.651 231.407 88.9806C229.347 88.2587 226.513 87.6914 225.226 87.6914C223.062 87.6914 222.856 87.5883 223.423 86.9179C224.453 85.6803 222.547 83.3598 220.435 83.1535C219.044 82.9988 217.962 83.6176 213.892 86.7632C209.462 90.2182 207.762 92.2809 208.69 93.2607C208.896 93.4154 210.132 93.1575 211.471 92.6934C216.108 90.8886 217.138 90.6307 218.117 91.0433C218.632 91.2495 220.229 91.4558 221.62 91.5589C223.062 91.6105 225.019 92.0231 225.998 92.4872L227.801 93.2607L225.226 93.3122C223.835 93.3638 221.62 93.6216 220.332 93.8795C217.859 94.4467 207.453 99.5518 207.453 100.222C207.453 100.428 208.123 101.254 208.947 102.027C209.977 103.007 210.699 104.502 211.368 107.029C212.708 112.34 212.605 114.713 210.956 116.363C209.411 117.961 208.483 117.652 208.483 115.589C208.483 114.764 207.917 113.527 207.196 112.753C205.702 111.154 205.65 110.845 206.68 107.957C207.865 104.554 206.835 102.646 203.641 102.285C202.765 102.182 200.808 101.099 199.211 99.8612C195.09 96.6125 193.184 95.7874 189.681 95.6327C187.981 95.5296 185.611 95.3233 184.426 95.1171C182.469 94.8077 182.314 94.7045 182.778 93.7763C183.293 92.8481 183.705 92.745 186.229 93.0028C187.878 93.1575 189.835 93.4669 190.66 93.6732C191.999 93.9826 192.153 93.931 191.896 92.9513C191.69 92.3325 191.896 91.7652 192.308 91.6105C193.39 91.198 195.09 87.382 195.09 85.2678C195.09 84.1849 195.605 81.8128 196.172 79.9564C196.893 77.6874 197.253 75.2122 197.305 72.2213C197.356 64.8988 196.017 63.558 190.402 65.2082C187.517 66.0848 180.151 66.3427 180.151 65.5692C180.151 64.1768 185.302 62.9392 191.226 62.9392C193.235 62.9392 194.781 62.6298 195.502 62.1142C196.584 61.3922 196.635 61.0828 196.326 57.37C195.966 52.7805 196.893 48.1911 198.953 44.4782C200.447 41.7967 200.447 41.7967 199.468 41.7967C199.056 41.7967 198.696 42.003 198.696 42.3124C198.696 42.5703 198.232 43.0344 197.665 43.3438C196.79 43.8079 196.378 43.6532 195.09 42.364C192.823 40.1466 192.926 36.4853 195.296 31.9474C196.223 30.1426 197.15 27.4095 197.356 25.9141C197.769 22.5107 198.129 21.6856 199.005 21.6856C199.417 21.6856 199.726 21.3246 199.726 20.8605C199.726 20.2417 199.417 20.087 198.696 20.2933C197.872 20.4996 197.047 19.9323 195.244 18.0243C193.544 16.2195 192.411 15.446 191.02 15.1882C189.99 15.0335 188.857 14.8272 188.548 14.7241C187.62 14.4147 188.29 13.0223 189.578 12.6098C190.196 12.4551 191.123 11.9394 191.587 11.5269C192.772 10.4956 194.214 11.0628 194.884 12.8161C195.502 14.3631 199.829 17.5602 201.375 17.5602C201.89 17.5602 202.302 17.4571 202.302 17.354C202.302 17.3024 200.859 16.0648 199.159 14.7241L195.966 12.2488L197.356 11.2175C199.005 10.0315 199.159 7.24683 197.665 4.77161C196.481 2.81207 194.42 2.50267 193.544 4.20438C192.669 5.85452 191.278 4.46221 191.638 2.2964C191.999 0.07901 190.35 -0.591354 187.569 0.543121ZM189.423 2.81207C189.423 3.48244 189.578 4.41064 189.732 4.82318C189.887 5.23572 189.629 5.69982 189.063 5.90609C188.599 6.11236 188.341 6.11236 188.548 5.85452C188.805 5.64825 188.084 5.23572 187.002 4.92632L185.045 4.35908L186.435 2.96677C188.187 1.21349 189.423 1.16193 189.423 2.81207ZM196.378 4.72005C196.378 5.13258 195.863 5.49355 195.193 5.59669C194.111 5.75139 194.06 5.64825 194.575 4.66848C195.193 3.48244 196.378 3.534 196.378 4.72005ZM195.296 6.11236C197.253 5.90609 197.665 6.31863 197.665 8.58758C197.665 9.30952 197.15 10.1346 196.378 10.6503C195.244 11.3722 195.038 11.3722 194.008 10.6503C192.978 9.92832 192.669 9.97989 190.505 11.2175C189.217 11.9394 187.826 12.8676 187.414 13.2286C186.332 14.2084 187.466 15.2913 189.99 15.6523C193.184 16.0648 197.408 20.3964 196.79 22.6654C196.481 23.7999 196.481 23.7999 195.605 22.4591C194.369 20.6027 191.844 19.1073 189.784 19.0557C188.187 19.0557 188.135 19.0557 189.423 18.54C190.402 18.1275 191.072 18.179 192.36 18.8494C193.235 19.3651 194.266 19.6229 194.626 19.5198C195.038 19.3651 194.214 18.8494 192.875 18.3337C190.763 17.5602 190.093 17.5087 188.341 18.0243C184.632 19.1588 183.087 23.8514 185.251 27.4095C187.723 31.4833 182.623 32.7209 179.996 28.6987C179.533 27.9768 178.09 26.6876 176.802 25.811C174.124 23.9546 173.969 23.1811 175.772 19.6229C177.163 16.8899 182.932 10.3409 184.014 10.3409C184.323 10.3409 185.045 9.87675 185.56 9.30952C186.59 8.17504 188.702 7.96877 190.66 8.84541C191.69 9.36108 192.102 9.30952 192.772 8.58758C193.75 7.65937 194.369 7.55624 194.832 8.27818C195.038 8.58758 194.781 8.63914 194.266 8.43288C193.647 8.22661 193.493 8.27818 193.75 8.69071C194.163 9.41265 196.635 9.51579 196.635 8.84541C196.635 8.63914 195.502 7.91721 194.111 7.34997C192.72 6.78273 191.278 5.80296 190.969 5.18415L190.35 4.04967L191.896 5.18415C193.029 6.00922 193.956 6.26706 195.296 6.11236ZM183.396 7.40154C183.19 8.79385 182.623 9.56735 181.232 10.5471C180.202 11.2691 178.502 12.9708 177.472 14.3115C175.514 16.9414 171.393 24.9343 171.393 26.2751C171.342 26.7392 170.878 26.2235 170.312 25.089C168.457 21.5825 169.075 20.2933 176.133 13.1255C179.584 9.67049 182.572 6.42176 182.829 5.95766C183.551 4.72005 183.757 5.23572 183.396 7.40154ZM188.96 6.989C190.608 7.7625 191.123 8.17504 190.196 7.96877C188.084 7.4531 185.869 7.6078 184.993 8.32974C184.22 8.94855 184.117 8.63914 184.581 6.8343C184.993 5.39042 185.56 5.39042 188.96 6.989ZM198.232 14.8272L199.468 16.1679L197.82 14.9819C196.069 13.6927 195.811 13.4349 196.532 13.4349C196.79 13.4349 197.511 14.0537 198.232 14.8272ZM133.736 24.5734C135.385 25.7594 136.364 28.3893 136.364 31.6896C136.364 34.1648 136.209 34.6289 134.767 35.815C133.324 37.0526 132.243 37.5167 132.243 36.8979C132.243 36.7947 132.706 35.9181 133.273 34.9899C134.921 32.2568 134.406 29.9363 132.14 29.9363C131.367 29.9363 131.212 30.4004 131.212 32.9788C131.212 34.9899 130.955 36.2275 130.44 36.64C129.306 37.5683 128.843 36.9494 127.555 33.1335C126.937 31.2255 126.318 29.3691 126.164 29.0081C126.009 28.4925 126.885 28.4409 130.285 28.6987C133.273 28.9566 134.767 28.8534 135.024 28.4925C135.539 27.6674 133.067 27.1001 128.791 27.1001C124.67 27.1001 124.567 26.636 128.276 24.8312C130.903 23.542 132.14 23.4904 133.736 24.5734ZM132.5 27.8736C133.994 28.2346 133.943 28.2862 131.985 28.2862C130.852 28.2862 129.358 28.0799 128.637 27.8736C127.452 27.5127 127.503 27.4611 129.152 27.4611C130.131 27.4611 131.676 27.6674 132.5 27.8736ZM132.861 33.1335C132.346 34.268 132.294 34.2164 132.294 32.5147C132.243 31.1739 132.397 30.9161 132.861 31.3802C133.273 31.7927 133.273 32.2568 132.861 33.1335ZM317.796 33.3913C318.208 33.907 318.724 34.8868 318.878 35.6603C319.187 36.8463 318.981 37.001 317.024 37.5683C315.839 37.9292 314.603 38.3418 314.293 38.4965C313.521 38.8574 312.387 36.4338 312.8 35.1446C313.572 32.6178 316.302 31.6896 317.796 33.3913ZM245.574 34.5258C246.913 37.0526 245.471 40.9717 243.359 40.6623C242.328 40.5076 242.225 40.1982 242.328 38.0324C242.586 34.0101 244.286 32.1537 245.574 34.5258ZM116.119 38.548C116.479 39.4762 116.788 41.0232 116.788 41.9514C116.788 43.1375 117.252 44.2204 118.231 45.3033C119.003 46.1799 119.931 47.2629 120.291 47.6754C121.167 48.8099 121.579 48.7067 123.485 47.1597C124.928 45.9221 125.237 45.8705 126.37 46.4378L127.658 47.1597L124.67 50.1506C123.073 51.8008 121.322 53.1415 120.858 53.1415C119.313 53.1415 117.407 50.0475 116.531 46.2315C116.376 45.4064 115.604 44.1688 114.831 43.55C114.058 42.8797 112.667 41.6936 111.688 40.8685C110.195 39.6309 109.988 39.1668 110.298 37.9292L110.658 36.4853L112.667 38.4449C113.801 39.5278 114.882 40.2497 115.088 39.9919C115.346 39.7856 115.191 39.4762 114.831 39.3731C114.007 39.0637 113.079 36.7432 113.491 36.0728C113.955 35.2993 115.294 36.64 116.119 38.548ZM312.284 38.548C313.675 40.456 311.306 43.3438 308.266 43.3438C307.648 43.3438 306.154 43.7047 304.969 44.1688C302.6 45.097 301.93 44.9423 302.394 43.6016C302.6 43.1375 303.372 42.8281 304.557 42.8281C306.463 42.8281 307.597 41.9514 309.606 39.0121C310.687 37.4651 311.409 37.3104 312.284 38.548ZM268.446 39.2184C269.167 39.4762 269.785 40.0435 269.785 40.456C269.785 40.8685 270.403 41.6936 271.125 42.2608C272.155 43.0859 272.722 43.1891 273.443 42.7765C274.215 42.4156 274.473 42.4671 274.679 43.0859C274.834 43.4985 275.04 44.1688 275.143 44.5814C275.297 44.9939 275.143 46.1799 274.885 47.1597L274.37 49.0161L273.185 47.6238C272.567 46.7988 271.897 45.7674 271.691 45.2517C271.331 44.272 270.558 44.1173 270.043 44.8908C269.682 45.458 266.643 45.5611 264.17 45.097C262.985 44.8392 262.573 44.4782 262.573 43.6532C262.625 42.6734 262.676 42.6734 263.14 43.4469C264.17 45.2517 267.21 43.9626 267.982 41.3842C268.24 40.4044 268.085 40.1982 266.694 39.8888C265.561 39.6825 265.252 39.4762 265.767 39.1668C266.643 38.5996 266.849 38.5996 268.446 39.2184ZM320.166 39.3215C321.196 40.3529 320.887 42.2608 319.496 43.6532C318.26 44.8908 318.054 44.9423 317.024 44.2204C315.89 43.4985 315.272 40.9201 315.839 39.4247C316.199 38.548 319.29 38.4449 320.166 39.3215ZM325.42 39.7341C325.833 39.9919 325.987 40.2497 325.678 40.2497C325.42 40.2497 324.802 39.9919 324.39 39.7341C323.978 39.4762 323.875 39.2184 324.133 39.2184C324.442 39.2184 325.008 39.4762 325.42 39.7341ZM272.567 40.0435C273.494 40.4044 273.649 41.5905 272.876 42.0546C272.206 42.4671 270.816 41.3842 270.816 40.456C270.816 39.6825 271.331 39.5794 272.567 40.0435ZM144.091 42.1061C144.091 42.2093 143.627 42.1061 143.061 41.7967C142.494 41.4873 142.03 41.1264 142.03 40.9717C142.03 40.8685 142.494 40.9717 143.061 41.2811C143.627 41.5905 144.091 41.9514 144.091 42.1061ZM266.694 41.4358C266.694 42.3124 265.664 43.3438 264.788 43.3438C263.964 43.3438 263.913 42.2093 264.737 41.3842C265.561 40.5591 266.694 40.6107 266.694 41.4358ZM252.889 42.6734C253.764 43.6532 256.907 48.8614 256.907 49.3255C256.907 49.4802 256.134 49.0161 255.207 48.2942C253.455 46.9535 252.631 46.9535 253.146 48.2942C253.301 48.7067 253.301 49.0161 253.095 49.0161C252.528 49.0161 251.652 46.8503 251.292 44.3235C250.828 41.5905 251.395 41.0232 252.889 42.6734ZM41.7323 44.7876C41.2687 44.8908 40.4445 44.4782 39.8263 43.8594L38.7445 42.725L40.6505 43.7047C41.8353 44.272 42.1959 44.6845 41.7323 44.7876ZM244.543 44.3751C244.543 44.6329 244.44 44.8908 244.337 44.8908C244.183 44.8908 243.925 44.6329 243.771 44.3751C243.616 44.0657 243.719 43.8594 243.977 43.8594C244.286 43.8594 244.543 44.0657 244.543 44.3751ZM313.315 45.9221C315.169 47.4176 315.478 47.4691 318.208 47.1597L321.145 46.8503L323.051 49.6865C324.081 51.2335 325.833 53.1415 326.966 53.915C329.129 55.4104 329.49 56.0808 328.305 56.5449C327.842 56.6996 326.554 55.7714 325.06 54.2244C321.248 50.3053 320.475 50.5631 317.178 56.6481C314.551 61.4954 313.933 61.7532 310.327 59.8452C308.73 59.0201 306.875 58.2982 306.257 58.2982C305.278 58.3498 305.485 58.556 307.133 59.4327C308.266 59.9999 310.378 61.5985 311.821 62.9392C313.881 64.7956 315.787 65.827 320.218 67.5287C324.699 69.282 325.987 70.0039 326.245 70.8806C326.399 71.6541 325.369 74.3871 322.999 79.1829C319.908 85.5772 319.342 86.4022 318.208 86.4022C316.354 86.4022 316.251 84.4943 317.899 82.0706C318.621 81.0393 319.599 78.9766 320.012 77.5327C320.527 75.7279 321.093 74.8512 321.814 74.645C323.566 74.1809 323.051 72.7885 321.196 72.8401C318.415 72.8917 314.912 72.1182 314.448 71.3962C313.933 70.468 312.027 70.468 312.027 71.3447C312.027 71.7056 312.49 72.376 313.006 72.8401C314.293 73.923 314.86 78.2547 314.396 83.4629C313.675 91.0948 313.572 90.5276 315.736 90.5792C316.972 90.5792 318.054 91.0433 319.084 91.9715C319.857 92.6934 321.299 93.8795 322.278 94.4983C325.008 96.3031 325.008 97.1798 322.278 96.7157C321.042 96.5094 319.805 96.0453 319.496 95.6843C319.239 95.3233 318.105 94.7561 317.024 94.3951C315.942 94.0857 314.706 93.2091 314.242 92.5387C313.418 91.198 312.027 90.837 312.027 91.9715C312.027 92.3325 312.336 93.106 312.748 93.6732C313.418 94.6014 313.366 94.7045 312.13 94.653C310.842 94.653 310.584 95.0655 308.73 100.068C307.648 103.058 306.618 105.585 306.515 105.688C306.412 105.843 305.845 105.482 305.278 104.863C304.3 103.883 304.248 103.626 304.815 101.821C305.175 100.686 306.412 97.9533 307.597 95.6843C309.606 91.7136 309.709 91.4042 309.709 86.6085V81.6581L306.618 75.5216C302.703 67.6318 302.445 65.3113 304.712 58.556C305.588 55.9777 306.515 52.3164 306.824 50.4084C307.339 46.6956 307.957 45.5611 309.709 44.8908C311.203 44.2204 311.203 44.2204 313.315 45.9221ZM126.834 45.4064C126.988 45.7158 126.782 45.7674 126.37 45.6127C125.443 45.2517 125.288 44.8908 126.009 44.8908C126.318 44.8908 126.679 45.097 126.834 45.4064ZM306.412 46.6441C305.948 47.5723 305.33 48.2426 304.969 48.1395C304.094 47.8301 295.336 51.7492 290.803 54.4822C288.742 55.7198 286.733 56.7512 286.373 56.7512C285.136 56.7512 286.064 55.462 288.124 54.3791C289.206 53.7603 292.812 51.6976 296.057 49.8412C299.303 47.9332 302.548 46.2831 303.269 46.1284C303.991 45.9737 305.021 45.6643 305.588 45.4064C307.236 44.6845 307.288 44.7876 306.412 46.6441ZM79.1315 46.4893C80.0588 47.0566 80.7285 47.6754 80.5739 47.8301C80.4194 47.9848 79.2861 47.4691 78.0497 46.7472C76.8134 46.0252 76.1952 45.4064 76.6074 45.4064C77.0195 45.4064 78.1528 45.8705 79.1315 46.4893ZM266.437 46.3346C267.107 46.5925 267.467 47.1597 267.467 47.9848C267.467 49.0161 267.776 49.3255 268.858 49.4287C269.631 49.5318 270.764 49.3255 271.331 49.0161C272.928 48.1911 273.134 48.7067 271.794 49.9959C270.97 50.7694 269.94 51.0788 268.343 51.0788C266.179 51.0788 266.076 51.0273 266.385 49.8412C266.643 48.8614 266.385 48.3458 265.304 47.4691C264.531 46.9019 263.604 46.5409 263.243 46.6441C262.882 46.7988 262.573 46.6956 262.573 46.4378C262.573 45.8705 264.84 45.819 266.437 46.3346ZM271.846 47.2629C272.206 47.6754 270.661 48.5005 269.425 48.5005C268.6 48.5005 268.394 48.2942 268.6 47.4176C268.858 46.5925 269.167 46.4378 270.249 46.6956C270.97 46.9019 271.691 47.1597 271.846 47.2629ZM265.149 48.8614C265.149 49.8928 263.913 49.4287 263.707 48.3458C263.604 47.727 263.758 47.5723 264.325 47.7785C264.788 47.9332 265.149 48.4489 265.149 48.8614ZM98.7584 50.5631C99.6342 52.2133 99.3251 53.7603 97.3675 57.6794C95.5645 61.0828 95.41 61.2891 95.0494 60.1031C94.8433 59.1748 95.1009 57.8857 96.0282 55.9261C97.2645 53.1931 97.316 52.5227 96.3888 49.3771C96.1312 48.552 96.2342 48.5005 97.1615 48.9646C97.7281 49.274 98.4493 49.9959 98.7584 50.5631ZM93.9676 55.101C93.2979 59.1233 92.5252 60.1031 92.0616 57.5247C91.6495 55.462 92.2676 52.7805 93.4009 51.5429C94.6373 50.1506 94.7403 50.6663 93.9676 55.101ZM228.986 52.2133C229.759 52.9868 229.81 56.2355 229.089 56.2355C228.368 56.2355 225.998 53.8634 225.998 53.1931C225.998 52.729 227.389 51.6461 228.11 51.5945C228.265 51.5945 228.625 51.8523 228.986 52.2133ZM351.178 53.6572C351.178 53.915 350.971 54.1728 350.662 54.1728C350.405 54.1728 350.147 53.915 350.147 53.6572C350.147 53.3478 350.405 53.1415 350.662 53.1415C350.971 53.1415 351.178 53.3478 351.178 53.6572ZM353.084 54.9463C352.878 55.3589 352.259 55.7198 351.641 55.7198C350.559 55.7198 350.559 55.7198 351.744 54.7401C353.084 53.6572 353.547 53.7087 353.084 54.9463ZM127.967 56.5449C127.812 56.6996 127.349 56.7512 126.988 56.5965C126.576 56.4418 126.731 56.2871 127.297 56.2871C127.864 56.2355 128.173 56.3902 127.967 56.5449ZM149.757 59.4327C149.757 60.9281 148.985 60.464 148.315 58.6592C147.954 57.731 147.697 56.6996 147.697 56.4418C147.748 55.5651 149.757 58.556 149.757 59.4327ZM360.347 57.0606C365.189 60.464 362.82 68.2506 356.999 68.0444C355.299 67.9412 355.247 67.9412 356.587 67.735C360.914 67.1677 363.077 64.4862 361.995 61.0828C360.605 56.9575 354.887 56.6996 352.981 60.6703C352.517 61.6501 352.053 62.4236 351.95 62.4236C351.384 62.4236 352.105 58.8654 352.929 57.6278C353.753 56.3902 354.217 56.2355 356.535 56.2355C358.132 56.2355 359.677 56.5449 360.347 57.0606ZM336.651 59.9483C339.587 61.7016 342.163 63.4549 342.317 63.919C342.472 64.3831 342.832 64.8988 343.09 65.0535C343.708 65.5176 343.09 66.5489 342.163 66.5489C341.802 66.5489 340.257 65.2598 338.763 63.6612C336.135 60.9281 332.993 58.8139 331.499 58.8139C330.366 58.8139 329.387 57.9372 329.748 57.3184C330.366 56.3387 331.087 56.6481 336.651 59.9483ZM123.125 60.464C122.712 62.2689 122.352 63.7127 122.3 63.7127C122.249 63.7127 121.734 63.9706 121.167 64.28C120.394 64.6925 119.776 66.2911 118.694 70.9837C116.376 80.6267 116.273 80.9877 115.758 80.9877C115.449 80.9877 115.243 80.5236 115.243 79.9048C115.243 78.4609 117.561 69.2304 119.158 64.3315C120.394 60.6703 122.455 57.2669 123.485 57.2669C123.691 57.2669 123.537 58.7107 123.125 60.464ZM165.469 58.8139C165.624 59.1233 165.418 59.1748 165.006 59.0201C164.078 58.6592 163.924 58.2982 164.645 58.2982C164.954 58.2982 165.315 58.5045 165.469 58.8139ZM231.665 60.2062C231.665 60.7219 231.356 60.825 230.583 60.6187C229.604 60.3093 229.553 60.3609 230.119 61.4954C230.686 62.5783 230.686 62.6298 229.913 61.8563C229.192 61.2375 229.141 60.7734 229.604 59.6389C230.068 58.4529 230.274 58.2982 230.892 58.8139C231.304 59.1748 231.665 59.7936 231.665 60.2062ZM234.756 58.8139C233.725 59.4842 233.056 59.4842 233.468 58.8139C233.622 58.5045 234.189 58.2982 234.653 58.2982C235.425 58.2982 235.425 58.4013 234.756 58.8139ZM360.038 59.6905C361.223 60.7734 361.274 64.0221 360.089 65.466C359.574 66.0848 358.338 66.7036 357.308 66.8583C355.865 67.1162 355.196 66.9099 354.114 65.9817C352.826 64.7956 352.774 64.6409 353.341 62.8361C353.65 61.7532 354.371 60.4125 354.887 59.8452C356.071 58.556 358.699 58.5045 360.038 59.6905ZM10.1542 61.186C10.1542 62.1142 13.0389 62.1657 13.4511 61.2375C13.6571 60.9281 13.6571 61.3922 13.5026 62.372C13.142 64.6409 13.142 64.6409 11.236 64.2284C9.99962 63.9706 9.53599 63.5065 9.2269 62.2689C8.96933 61.3407 8.86631 60.464 8.96933 60.2062C9.27842 59.6389 10.1542 60.3093 10.1542 61.186ZM234.962 60.825C235.116 61.0313 234.653 61.1344 233.983 60.9797C233.262 60.8766 232.695 60.6703 232.695 60.5672C232.695 60.1546 234.704 60.3609 234.962 60.825ZM350.662 61.9079C350.662 63.3518 350.559 63.4549 349.581 62.9392C348.55 62.372 348.55 62.3204 349.426 61.3407C350.611 60.0515 350.662 60.1031 350.662 61.9079ZM67.5924 61.9079C67.5924 62.5267 66.7682 62.6814 63.7288 62.7845L59.8653 62.8877L62.9561 61.9079C66.4591 60.825 67.5924 60.825 67.5924 61.9079ZM234.241 63.1455C234.601 63.6096 234.653 63.9706 234.395 63.9706C233.674 63.9706 231.665 62.4236 231.665 61.8563C231.665 61.2375 233.313 62.0626 234.241 63.1455ZM64.3985 63.4549C68.2106 63.4549 68.3651 63.5065 68.3651 64.6409C68.3651 66.9099 66.8197 70.9837 65.4803 72.2729C64.347 73.3558 63.6258 73.5105 60.0713 73.6136L55.9502 73.7167L53.6836 71.3962C51.7776 69.4883 51.0564 69.1273 49.3564 69.1273C48.2231 69.1273 47.0898 69.4367 46.7292 69.9008C45.8534 70.9321 45.1838 70.8806 45.1838 69.7461C45.1838 68.2506 46.9867 66.9099 50.4897 65.7754C52.9624 64.9503 53.6836 64.4862 53.5805 63.7643C53.529 62.8877 53.7866 62.8361 56.929 63.1455C58.835 63.3002 62.1834 63.4549 64.3985 63.4549ZM349.117 63.6612C349.117 63.7643 348.756 64.0221 348.293 64.1768C347.881 64.3315 347.675 64.28 347.829 63.9706C348.138 63.4549 349.117 63.2486 349.117 63.6612ZM350.868 65.2598C350.353 66.6005 347.572 66.8583 347.572 65.5692C347.572 65.1051 350.25 64.0737 350.765 64.3315C350.971 64.4347 351.023 64.8472 350.868 65.2598ZM11.1844 65.0019C11.1844 65.2598 10.9269 65.5176 10.6178 65.5176C10.3602 65.5176 10.2572 65.2598 10.4117 65.0019C10.5663 64.6925 10.8238 64.4862 10.9784 64.4862C11.0814 64.4862 11.1844 64.6925 11.1844 65.0019ZM131.161 67.8381C132.5 69.1788 131.418 69.1788 128.585 67.8381C127.04 67.1162 125.288 66.5489 124.67 66.5489C123.846 66.5489 123.485 66.2395 123.485 65.5692C123.485 64.6409 123.64 64.6925 126.988 65.8786C128.894 66.5489 130.749 67.4771 131.161 67.8381ZM11.9572 66.4974C11.545 67.1677 9.63902 67.2709 9.63902 66.6005C9.63902 66.3427 10.1542 66.0333 10.8238 65.9301C12.2147 65.6723 12.4208 65.7754 11.9572 66.4974ZM243.874 67.1677C243.719 67.5803 243.565 67.4256 243.565 66.8583C243.513 66.2911 243.668 65.9817 243.822 66.188C243.977 66.3427 244.028 66.8068 243.874 67.1677ZM31.2749 67.5803C31.2749 67.8381 30.7598 68.0959 30.1416 68.0959C29.1629 68.0959 29.1113 67.9928 29.7295 67.5803C30.7083 66.9099 31.2749 66.9099 31.2749 67.5803ZM12.1117 70.1586C12.0602 71.3447 11.8541 71.6541 11.339 71.4478C10.9269 71.2931 9.9481 71.19 9.2269 71.19L7.83602 71.1384L9.43296 70.468C10.3602 70.0555 11.236 69.4883 11.3905 69.1788C11.9572 68.2506 12.1632 68.5085 12.1117 70.1586ZM26.3296 70.3133C26.175 70.7259 25.0933 71.5509 23.9084 72.2213C20.7146 73.9746 19.9418 74.7997 18.654 77.6874C17.1601 81.0908 13.7601 83.7208 9.63902 84.649C7.78451 85.1131 4.23004 84.4427 3.7149 83.5661C3.50884 83.2567 3.92095 83.2567 4.74518 83.5661C8.40268 84.9584 12.2662 83.5661 14.6359 80.0079C15.9753 77.9968 16.1813 75.0575 15.048 73.4589C14.3268 72.376 14.3783 72.376 17.7782 72.1182C19.6843 71.9635 22.26 71.3962 23.5478 70.7774C26.3811 69.4883 26.6902 69.4367 26.3296 70.3133ZM52.8078 71.4478C55.0745 73.562 54.4048 73.7683 51.3139 71.9635C50.0776 71.2415 48.5837 70.6743 48.017 70.6743C47.1413 70.6743 47.1413 70.5712 47.7595 70.1586C49.2018 69.2304 50.8503 69.643 52.8078 71.4478ZM230.789 70.829C231.819 72.4791 241.401 80.2142 241.813 79.7501C241.968 79.5954 242.019 79.3891 241.916 79.286C241.813 79.2344 239.546 77.2233 236.971 74.8512C232.489 70.8806 231.51 69.643 232.644 69.643C233.262 69.643 244.801 78.925 244.801 79.4407C244.801 80.2142 236.301 88.6712 235.992 88.1555C235.837 87.8977 235.837 86.7116 236.044 85.5772C236.404 83.5661 236.301 83.4629 233.21 80.3689C229.759 76.8623 228.059 74.0777 228.059 71.8088C228.059 69.3335 229.45 68.8179 230.789 70.829ZM51.3139 72.6854C52.1382 73.3042 53.1684 73.7683 53.5805 73.7683C54.5593 73.7683 59.9168 78.925 60.3289 80.3173C60.535 80.9877 60.2774 81.8643 59.5562 82.741C58.8865 83.6176 58.5774 84.5974 58.732 85.3709C58.835 86.0928 58.8865 86.6601 58.7835 86.6601C58.732 86.6601 58.3198 86.8148 57.8562 86.9695C57.3926 87.1758 57.032 87.021 57.032 86.6601C57.032 85.2162 53.8896 79.4407 53.1684 79.4407C52.4472 79.4407 52.4472 79.5954 53.1169 80.6267C53.8381 81.6581 53.7866 82.019 52.6018 84.5974C51.7776 86.3507 51.417 87.9493 51.5715 88.7743C51.726 89.4963 53.9411 93.4669 56.4653 97.4892C60.7925 104.348 61.1531 105.07 61.1531 107.493C61.1531 110.484 59.8138 113.681 57.9592 115.434L56.6199 116.621L56.3108 113.784C55.8472 110.175 56.2078 108.937 58.4744 107.029C60.8955 104.915 60.535 103.729 58.0108 105.43L56.1047 106.72L52.1897 100.325C48.3261 94.0342 46.7292 90.6307 46.7292 88.6196C46.7292 88.0524 47.4504 85.9381 48.3261 83.9786C50.2321 79.5438 50.1291 77.1717 47.914 74.3356C45.2868 71.0868 45.2868 70.9837 47.6564 71.2931C48.8413 71.4478 50.4382 72.0666 51.3139 72.6854ZM12.4723 72.4276C15.5631 73.7167 15.5631 78.0999 12.4723 81.2455C8.50571 85.2162 2.2725 83.7208 1.5513 78.6156C1.19071 75.8826 3.04521 73.562 6.44514 72.5307C9.5875 71.5509 10.3087 71.5509 12.4723 72.4276ZM319.548 73.8199C319.908 74.4387 318.363 79.2344 317.23 80.9361L316.457 82.1737L316.148 80.9361C315.942 80.2658 315.633 78.2031 315.478 76.3467L315.118 72.9432L317.178 73.1495C318.312 73.2526 319.393 73.562 319.548 73.8199ZM251.137 81.2971C252.786 82.4316 252.528 82.9473 250.313 82.8441C248.819 82.8441 247.686 83.3082 245.265 85.0099C243.565 86.196 241.968 87.1758 241.71 87.1758C240.989 87.1758 246.707 81.5034 247.892 80.9877C249.386 80.3173 249.849 80.3689 251.137 81.2971ZM118.952 84.1849C118.746 87.4336 117.819 89.2384 116.428 89.2384C116.016 89.2384 114.625 88.6712 113.285 87.9493C111.688 87.1242 110.04 86.6601 108.443 86.6601C105.867 86.6601 104.27 85.6287 104.528 84.1849C104.631 83.5145 105.249 83.3598 107.052 83.5145C108.392 83.5661 110.298 83.2567 111.379 82.7926C112.719 82.2769 113.543 82.1737 113.904 82.5347C114.728 83.3598 116.479 83.1535 117.458 82.019C118.849 80.3689 119.21 80.7814 118.952 84.1849ZM56.0017 86.6601C56.2593 87.5367 56.2078 88.3102 55.8987 88.6196C55.5896 88.929 55.1775 90.0635 54.9714 91.1464L54.6623 93.106L53.426 90.6307L52.1897 88.2071L53.3745 85.7834C54.6623 83.1535 55.0229 83.3082 56.0017 86.6601ZM221.671 84.649L222.856 85.7834L220.435 88.0008C218.632 89.651 217.601 90.2182 216.314 90.2698C215.386 90.2698 213.686 90.7339 212.553 91.3527C209.205 93.0544 209.153 92.2293 212.399 89.4447C215.541 86.7116 219.765 83.5661 220.229 83.5661C220.383 83.5661 221.053 84.0817 221.671 84.649ZM63.7803 89.3416C63.0591 91.6621 60.9471 94.9108 60.0713 94.9108C59.8138 94.9108 60.4319 93.5701 61.4622 91.9199C62.544 90.3213 63.3682 88.3102 63.3682 87.5367C63.3682 86.6085 63.5743 86.2991 63.8834 86.6085C64.244 86.9695 64.1925 87.8977 63.7803 89.3416ZM62.3895 87.0726C62.5955 87.4336 58.5259 95.1171 58.3198 94.7561C58.2683 94.7045 58.0623 93.2091 57.9077 91.4558C57.5986 88.3102 57.5986 88.2071 58.9895 87.4852C60.535 86.6085 61.9773 86.4538 62.3895 87.0726ZM173.814 87.7946C173.66 88.2071 173.505 88.0524 173.505 87.4852C173.454 86.9179 173.608 86.6085 173.763 86.8148C173.917 86.9695 173.969 87.4336 173.814 87.7946ZM135.127 88.0008C136.261 88.3102 137.703 91.4042 137.136 92.3325C136.982 92.5903 135.643 92.8481 134.252 92.8481C132.088 92.8481 131.624 92.6934 131.264 91.6621C131.006 91.0433 130.903 90.2182 131.006 89.8572C131.109 89.5478 131.315 88.8775 131.47 88.4649C131.676 87.6914 133.221 87.4852 135.127 88.0008ZM228.471 88.9806C229.707 89.1353 231.665 89.7541 232.798 90.3213C234.704 91.3011 234.859 91.5074 234.55 93.0028C234.395 93.8795 234.137 94.653 234.034 94.7561C233.931 94.8592 232.025 94.1373 229.81 93.2091C227.595 92.2293 224.556 91.1464 223.062 90.837C221.207 90.3729 220.486 89.9604 220.641 89.4963C220.95 88.7743 223.32 88.3102 225.226 88.5165C225.792 88.6196 227.286 88.7743 228.471 88.9806ZM56.8774 92.6934C56.6714 93.5701 56.6714 93.5701 56.2593 92.6934C56.0532 92.2293 56.0532 91.4042 56.2593 90.8886C56.6714 90.0635 56.6714 90.0635 56.8774 90.8886C57.032 91.4042 57.032 92.2293 56.8774 92.6934ZM177.523 92.4356C177.627 92.7966 178.348 93.6732 179.12 94.3951C180.202 95.4265 180.46 96.0453 180.305 97.2829C180.151 98.3142 180.357 99.0877 180.872 99.5003C181.336 99.9128 181.696 100.48 181.696 100.789C181.696 101.615 184.014 103.729 186.384 105.173C188.96 106.668 189.578 107.545 189.217 109.092C188.754 111 186.899 110.742 184.735 108.525C183.808 107.545 181.542 105.688 179.842 104.399C178.09 103.11 175.927 101.047 175.051 99.8097C173.66 97.8501 173.454 97.1798 173.557 94.8592C173.711 92.384 173.608 92.1262 172.424 91.7136C171.599 91.4558 172.218 91.4042 174.227 91.5589C176.133 91.6621 177.369 92.0231 177.523 92.4356ZM181.593 93.106C181.645 93.1575 181.593 93.5701 181.387 94.0342C181.129 94.7045 180.872 94.7561 180.099 94.3436C178.657 93.5701 178.811 92.1778 180.305 92.6419C180.923 92.7966 181.49 93.0544 181.593 93.106ZM190.711 92.8481C190.866 93.106 190.763 93.3638 190.505 93.3638C190.196 93.3638 189.938 93.106 189.938 92.8481C189.938 92.5387 190.041 92.3325 190.144 92.3325C190.299 92.3325 190.557 92.5387 190.711 92.8481ZM133.943 93.7248C133.582 93.8279 132.964 93.8279 132.655 93.7248C132.294 93.5701 132.552 93.4669 133.273 93.4669C133.994 93.4669 134.252 93.5701 133.943 93.7248ZM137.755 94.4983C138.064 94.8592 139.145 98.5205 140.176 102.646L142.03 110.072L140.536 111.619C139.661 112.495 138.888 113.062 138.785 112.908C138.27 112.237 133.788 101.047 133.376 99.294C132.088 94.1889 132.088 94.4983 133.891 94.2404C137.033 93.8795 137.291 93.8795 137.755 94.4983ZM205.084 104.554C205.393 105.327 204.465 108.834 203.95 108.834C203.744 108.834 203.074 108.473 202.456 108.06C201.478 107.39 201.426 107.081 201.89 105.534C202.302 104.141 202.714 103.832 203.641 103.883C204.311 103.883 204.98 104.193 205.084 104.554ZM63.7288 105.224C63.7288 105.482 63.5228 105.74 63.2652 105.74C62.9561 105.74 62.5955 105.482 62.441 105.224C62.2864 104.915 62.4925 104.709 62.9046 104.709C63.3682 104.709 63.7288 104.915 63.7288 105.224ZM305.278 108.267C304.918 109.246 302.754 107.338 302.754 106.101C302.754 105.018 302.806 105.018 304.094 106.359C304.866 107.081 305.382 107.957 305.278 108.267ZM304.557 109.35C304.712 109.607 304.506 109.865 304.094 109.865C303.682 109.865 303.166 109.607 303.012 109.35C302.857 109.04 303.063 108.834 303.475 108.834C303.888 108.834 304.403 109.04 304.557 109.35ZM191.999 110.123C192.566 110.793 192.514 110.845 191.793 110.587C191.329 110.432 190.969 110.072 190.969 109.814C190.969 109.143 191.278 109.246 191.999 110.123ZM302.6 110.278C303.218 110.639 304.042 110.897 304.454 110.897C305.021 110.897 305.433 112.031 305.948 114.867C306.927 120.643 306.669 120.54 301.363 113.527C300.127 111.928 299.148 110.381 299.148 110.02C299.148 109.298 301.003 109.453 302.6 110.278ZM192.411 111.722C193.647 112.547 193.853 115.022 192.772 115.383C192.205 115.538 190.454 112.753 190.454 111.619C190.454 110.69 190.969 110.69 192.411 111.722ZM200.241 111.876C200.241 112.392 199.881 113.733 199.417 114.816C198.799 116.26 198.644 117.807 198.85 120.385C199.108 124.51 198.541 127.192 197.202 127.914C195.863 128.584 195.605 128.12 195.605 125.026C195.605 122.705 195.399 122.138 194.317 121.365C191.02 119.044 190.814 118.838 191.175 117.755C191.381 117.136 192.205 116.414 192.978 116.156C194.42 115.641 195.553 113.784 194.884 113.062C194.42 112.598 197.665 110.948 199.108 110.897C199.881 110.897 200.241 111.206 200.241 111.876ZM145.43 114.094C144.864 116.981 139.609 124.304 138.115 124.304C137.136 124.304 137.188 123.84 138.476 121.777C139.249 120.488 139.506 119.354 139.352 117.497C139.197 115.28 139.3 115.022 140.279 115.022C140.845 115.022 141.876 114.455 142.545 113.733C143.215 113.011 144.194 112.444 144.761 112.444C145.636 112.444 145.739 112.701 145.43 114.094ZM190.969 115.177C190.969 115.434 190.608 115.383 190.196 115.022C189.784 114.661 189.423 113.991 189.423 113.527C189.475 112.856 189.578 112.856 190.196 113.681C190.608 114.248 190.969 114.919 190.969 115.177Z" fill="white"/>
</svg>
