<svg width="32" height="40" viewBox="0 0 32 40" fill="none" xmlns="http://www.w3.org/2000/svg">
<g filter="url(#filter0_d_192_2260)">
<path d="M16 0C22.6274 0 28 5.37258 28 12C28 15.0547 26.8561 17.8407 24.9766 19.959L25 20L16.75 31.25L7 20L7.02539 19.9619C5.14444 17.8433 4 15.056 4 12C4 5.37258 9.37258 0 16 0Z" fill="url(#paint0_linear_192_2260)"/>
</g>
<circle cx="16" cy="12" r="8" fill="white"/>
<path d="M14.4557 12.7749L20.1644 10.9805H13.678C13.1838 10.9805 12.7315 11.2591 12.5094 11.7005L10 16.6874L14.4553 12.7746L14.4557 12.7749Z" fill="#006818"/>
<path d="M21.9996 8H11.5457L12.9016 9.54441C13.0589 9.72342 13.2857 9.82633 13.5242 9.82633H21.085L22 8H21.9996Z" fill="#006818"/>
<defs>
<filter id="filter0_d_192_2260" x="0" y="0" width="32" height="39.25" filterUnits="userSpaceOnUse" color-interpolation-filters="sRGB">
<feFlood flood-opacity="0" result="BackgroundImageFix"/>
<feColorMatrix in="SourceAlpha" type="matrix" values="0 0 0 0 0 0 0 0 0 0 0 0 0 0 0 0 0 0 127 0" result="hardAlpha"/>
<feOffset dy="4"/>
<feGaussianBlur stdDeviation="2"/>
<feComposite in2="hardAlpha" operator="out"/>
<feColorMatrix type="matrix" values="0 0 0 0 0 0 0 0 0 0 0 0 0 0 0 0 0 0 0.25 0"/>
<feBlend mode="normal" in2="BackgroundImageFix" result="effect1_dropShadow_192_2260"/>
<feBlend mode="normal" in="SourceGraphic" in2="effect1_dropShadow_192_2260" result="shape"/>
</filter>
<linearGradient id="paint0_linear_192_2260" x1="6" y1="5.5" x2="43" y2="19.5" gradientUnits="userSpaceOnUse">
<stop stop-color="#55DB26"/>
<stop offset="1" stop-color="#006818"/>
</linearGradient>
</defs>
</svg>
