<svg width="156" height="156" viewBox="0 0 156 156" fill="none" xmlns="http://www.w3.org/2000/svg">
<g clip-path="url(#clip0_184_12598)">
<path d="M114.562 102.375H102.375C101.029 102.375 99.9375 103.466 99.9375 104.812V153.562C99.9375 154.909 101.029 156 102.375 156H114.562C115.909 156 117 154.909 117 153.562V104.812C117 103.466 115.909 102.375 114.562 102.375Z" fill="#6D74A0"/>
<path d="M53.9175 41.8543C50.1397 43.7465 46.9679 46.6596 44.762 50.2632C42.556 53.8668 41.4043 58.0165 41.4375 62.2416V107.25L25.4329 123.255C25.3461 123.341 25.2868 123.451 25.2627 123.571C25.2386 123.692 25.2506 123.816 25.2973 123.929C25.3441 124.043 25.4233 124.14 25.5251 124.208C25.6269 124.276 25.7467 124.312 25.8692 124.312H72.1159C72.7623 124.312 73.3822 124.055 73.8392 123.598L90.1875 107.25V63.375C90.1651 59.129 89.044 54.9612 86.9333 51.277C84.8225 47.5928 81.794 44.5178 78.1424 42.3511C74.4908 40.1844 70.3405 38.9999 66.0953 38.9129C61.8502 38.8258 57.6549 39.8392 53.9175 41.8543Z" fill="#454C77"/>
<path d="M131.625 39H65.8125C65.166 39 64.546 39.2568 64.0889 39.7139C63.6318 40.171 63.375 40.791 63.375 41.4375C63.375 42.084 63.6318 42.704 64.0889 43.1611C64.546 43.6182 65.166 43.875 65.8125 43.875C70.9824 43.8808 75.939 45.9371 79.5947 49.5928C83.2504 53.2485 85.3067 58.2051 85.3125 63.375V104.812C85.3125 105.459 85.5693 106.079 86.0264 106.536C86.4835 106.993 87.1035 107.25 87.75 107.25H153.562C154.209 107.25 154.829 106.993 155.286 106.536C155.743 106.079 156 105.459 156 104.812V63.375C155.993 56.9125 153.423 50.7168 148.853 46.1471C144.283 41.5774 138.087 39.0071 131.625 39Z" fill="#2A2E47"/>
<path d="M53.9175 41.8543C50.1397 43.7465 46.9679 46.6596 44.762 50.2632C42.556 53.8668 41.4043 58.0165 41.4375 62.2416V107.25H90.1875V63.375C90.1651 59.129 89.044 54.9612 86.9333 51.277C84.8225 47.5928 81.7939 44.5178 78.1423 42.3511C74.4907 40.1844 70.3405 38.9999 66.0953 38.9129C61.8502 38.8258 57.6549 39.8392 53.9175 41.8543Z" fill="#454C77"/>
<path d="M70.6875 60.9375H31.6875C30.3413 60.9375 29.25 62.0288 29.25 63.375V92.625C29.25 93.9712 30.3413 95.0625 31.6875 95.0625H70.6875C72.0337 95.0625 73.125 93.9712 73.125 92.625V63.375C73.125 62.0288 72.0337 60.9375 70.6875 60.9375Z" fill="url(#paint0_linear_184_12598)"/>
<path d="M73.125 66.7437L51.1875 77.7124L29.25 66.7437V72.1939L50.0979 82.6313C50.4363 82.8003 50.8093 82.8884 51.1875 82.8884C51.5657 82.8884 51.9387 82.8003 52.2771 82.6313L73.125 72.1939V66.7437Z" fill="#299B42"/>
<path d="M21.9375 80.4375H7.3125C6.66603 80.4375 6.04605 80.1807 5.58893 79.7236C5.13181 79.2665 4.875 78.6465 4.875 78C4.875 77.3535 5.13181 76.7335 5.58893 76.2764C6.04605 75.8193 6.66603 75.5625 7.3125 75.5625H21.9375C22.584 75.5625 23.204 75.8193 23.6611 76.2764C24.1182 76.7335 24.375 77.3535 24.375 78C24.375 78.6465 24.1182 79.2665 23.6611 79.7236C23.204 80.1807 22.584 80.4375 21.9375 80.4375Z" fill="url(#paint1_linear_184_12598)"/>
<path d="M21.9375 90.1875H14.625C13.9785 90.1875 13.3585 89.9307 12.9014 89.4736C12.4443 89.0165 12.1875 88.3965 12.1875 87.75C12.1875 87.1035 12.4443 86.4835 12.9014 86.0264C13.3585 85.5693 13.9785 85.3125 14.625 85.3125H21.9375C22.584 85.3125 23.204 85.5693 23.6611 86.0264C24.1182 86.4835 24.375 87.1035 24.375 87.75C24.375 88.3965 24.1182 89.0165 23.6611 89.4736C23.204 89.9307 22.584 90.1875 21.9375 90.1875Z" fill="url(#paint2_linear_184_12598)"/>
<path d="M21.9375 70.6875H2.4375C1.79103 70.6875 1.17105 70.4307 0.713927 69.9736C0.256807 69.5165 0 68.8965 0 68.25C0 67.6035 0.256807 66.9835 0.713927 66.5264C1.17105 66.0693 1.79103 65.8125 2.4375 65.8125H21.9375C22.584 65.8125 23.204 66.0693 23.6611 66.5264C24.1182 66.9835 24.375 67.6035 24.375 68.25C24.375 68.8965 24.1182 69.5165 23.6611 69.9736C23.204 70.4307 22.584 70.6875 21.9375 70.6875Z" fill="url(#paint3_linear_184_12598)"/>
<path d="M112.125 78C117.51 78 121.875 73.6348 121.875 68.25C121.875 62.8652 117.51 58.5 112.125 58.5C106.74 58.5 102.375 62.8652 102.375 68.25C102.375 73.6348 106.74 78 112.125 78Z" fill="url(#paint4_linear_184_12598)"/>
<path d="M112.125 70.6875C111.479 70.6875 110.859 70.4307 110.401 69.9736C109.944 69.5165 109.688 68.8965 109.688 68.25V26.8125C109.688 26.166 109.944 25.546 110.401 25.0889C110.859 24.6318 111.479 24.375 112.125 24.375C112.771 24.375 113.391 24.6318 113.849 25.0889C114.306 25.546 114.562 26.166 114.562 26.8125V68.25C114.562 68.8965 114.306 69.5165 113.849 69.9736C113.391 70.4307 112.771 70.6875 112.125 70.6875Z" fill="#299B42"/>
<path d="M153.562 156H2.4375C1.79103 156 1.17105 155.743 0.713927 155.286C0.256807 154.829 0 154.209 0 153.562C0 152.916 0.256807 152.296 0.713927 151.839C1.17105 151.382 1.79103 151.125 2.4375 151.125H153.562C154.209 151.125 154.829 151.382 155.286 151.839C155.743 152.296 156 152.916 156 153.562C156 154.209 155.743 154.829 155.286 155.286C154.829 155.743 154.209 156 153.562 156Z" fill="#2A2E47"/>
<path d="M139.622 14.625L148.154 3.96094C148.441 3.6024 148.621 3.17004 148.673 2.7137C148.725 2.25735 148.647 1.79559 148.448 1.38162C148.249 0.967647 147.937 0.618313 147.548 0.373872C147.159 0.12943 146.709 -0.000172207 146.25 1.71733e-07H112.125C111.479 1.71733e-07 110.859 0.256807 110.401 0.713927C109.944 1.17105 109.688 1.79104 109.688 2.4375V29.25H146.25C146.709 29.2502 147.159 29.1206 147.548 28.8761C147.937 28.6317 148.249 28.2824 148.448 27.8684C148.647 27.4544 148.725 26.9926 148.673 26.5363C148.621 26.08 148.441 25.6476 148.154 25.2891L139.622 14.625Z" fill="url(#paint5_linear_184_12598)"/>
</g>
<defs>
<linearGradient id="paint0_linear_184_12598" x1="37.7747" y1="53.6072" x2="58.1909" y2="72.9544" gradientUnits="userSpaceOnUse">
<stop stop-color="#B6FC00"/>
<stop offset="1" stop-color="#55DB26"/>
</linearGradient>
<linearGradient id="paint1_linear_184_12598" x1="8.66377" y1="74.5153" x2="10.4407" y2="79.7542" gradientUnits="userSpaceOnUse">
<stop stop-color="#B6FC00"/>
<stop offset="1" stop-color="#55DB26"/>
</linearGradient>
<linearGradient id="paint2_linear_184_12598" x1="14.5555" y1="84.2653" x2="17.0045" y2="88.7779" gradientUnits="userSpaceOnUse">
<stop stop-color="#B6FC00"/>
<stop offset="1" stop-color="#55DB26"/>
</linearGradient>
<linearGradient id="paint3_linear_184_12598" x1="4.73596" y1="64.7653" x2="6.21238" y2="70.2063" gradientUnits="userSpaceOnUse">
<stop stop-color="#B6FC00"/>
<stop offset="1" stop-color="#55DB26"/>
</linearGradient>
<linearGradient id="paint4_linear_184_12598" x1="106.164" y1="54.3113" x2="117.324" y2="62.5367" gradientUnits="userSpaceOnUse">
<stop stop-color="#B6FC00"/>
<stop offset="1" stop-color="#55DB26"/>
</linearGradient>
<linearGradient id="paint5_linear_184_12598" x1="117.265" y1="-6.28311" x2="134.787" y2="10.9371" gradientUnits="userSpaceOnUse">
<stop stop-color="#B6FC00"/>
<stop offset="1" stop-color="#55DB26"/>
</linearGradient>
<clipPath id="clip0_184_12598">
<rect width="156" height="156" fill="white"/>
</clipPath>
</defs>
</svg>