<svg width="26" height="26" viewBox="0 0 26 26" fill="none" xmlns="http://www.w3.org/2000/svg">
<circle cx="13" cy="13" r="13" fill="black" fill-opacity="0.5"/>
<g clip-path="url(#clip0_184_10273)">
<path d="M17.9701 8.3333C17.9701 9.38037 17.1213 10.2292 16.0743 10.2292C15.0272 10.2292 14.1785 9.38037 14.1785 8.3333C14.1785 7.28633 15.0272 6.4375 16.0743 6.4375C17.1213 6.4375 17.9701 7.28633 17.9701 8.3333Z" fill="#E0E0E0"/>
<path d="M16.0743 10.6667C14.7874 10.6667 13.741 9.62016 13.741 8.3333C13.741 7.04654 14.7874 6 16.0743 6C17.3611 6 18.4076 7.04654 18.4076 8.3333C18.4076 9.62016 17.3611 10.6667 16.0743 10.6667ZM16.0743 6.875C15.2699 6.875 14.616 7.52954 14.616 8.3333C14.616 9.13716 15.2699 9.7917 16.0743 9.7917C16.8787 9.7917 17.5326 9.13716 17.5326 8.3333C17.5326 7.52954 16.8787 6.875 16.0743 6.875Z" fill="#E0E0E0"/>
<path d="M17.9701 17.6669C17.9701 18.7139 17.1213 19.5627 16.0743 19.5627C15.0272 19.5627 14.1785 18.7139 14.1785 17.6669C14.1785 16.6198 15.0272 15.771 16.0743 15.771C17.1213 15.771 17.9701 16.6198 17.9701 17.6669Z" fill="#E0E0E0"/>
<path d="M16.0743 20.0002C14.7874 20.0002 13.741 18.9537 13.741 17.6669C13.741 16.38 14.7874 15.3335 16.0743 15.3335C17.3611 15.3335 18.4076 16.38 18.4076 17.6669C18.4076 18.9537 17.3611 20.0002 16.0743 20.0002ZM16.0743 16.2085C15.2699 16.2085 14.616 16.863 14.616 17.6669C14.616 18.4707 15.2699 19.1252 16.0743 19.1252C16.8787 19.1252 17.5326 18.4707 17.5326 17.6669C17.5326 16.863 16.8787 16.2085 16.0743 16.2085Z" fill="#E0E0E0"/>
<path d="M9.80342 12.9998C9.80342 14.0469 8.95459 14.8956 7.90752 14.8956C6.86055 14.8956 6.01172 14.0469 6.01172 12.9998C6.01172 11.9527 6.86055 11.104 7.90752 11.104C8.95459 11.104 9.80342 11.9527 9.80342 12.9998Z" fill="#E0E0E0"/>
<path d="M7.90752 15.3331C6.62076 15.3331 5.57422 14.2867 5.57422 12.9998C5.57422 11.7129 6.62076 10.6665 7.90752 10.6665C9.19438 10.6665 10.2409 11.7129 10.2409 12.9998C10.2409 14.2867 9.19438 15.3331 7.90752 15.3331ZM7.90752 11.5415C7.10312 11.5415 6.44922 12.1959 6.44922 12.9998C6.44922 13.8037 7.10312 14.4581 7.90752 14.4581C8.71202 14.4581 9.36592 13.8037 9.36592 12.9998C9.36592 12.1959 8.71202 11.5415 7.90752 11.5415Z" fill="#E0E0E0"/>
<path d="M9.28484 12.72C9.08179 12.72 8.88462 12.6144 8.77727 12.4255C8.61802 12.146 8.71607 11.7896 8.99549 11.6297L14.4082 8.54392C14.6876 8.38349 15.044 8.48154 15.2039 8.76203C15.3632 9.04145 15.2651 9.39788 14.9857 9.55778L9.57291 12.6436C9.48191 12.6955 9.38279 12.72 9.28484 12.72Z" fill="#E0E0E0"/>
<path d="M14.6971 17.5324C14.599 17.5324 14.4999 17.5079 14.4089 17.4559L8.99614 14.3702C8.71672 14.2109 8.61878 13.8545 8.77803 13.5744C8.93665 13.2945 9.29361 13.1959 9.57367 13.3563L14.9865 16.4421C15.2659 16.6013 15.3638 16.9578 15.2046 17.2378C15.0967 17.4268 14.8995 17.5324 14.6971 17.5324Z" fill="#E0E0E0"/>
</g>
<defs>
<clipPath id="clip0_184_10273">
<rect width="14" height="14" fill="white" transform="translate(5 6)"/>
</clipPath>
</defs>
</svg>
