<svg width="22" height="18" viewBox="0 0 22 18" fill="none" xmlns="http://www.w3.org/2000/svg">
<path d="M18.6939 0.42334H3.30629C1.90035 0.42334 0.756348 1.56665 0.756348 2.97259V15.0265C0.756348 16.4325 1.90035 17.5758 3.3056 17.5758H18.6939C20.0998 17.5758 21.2438 16.4318 21.2438 15.0265V2.97259C21.2438 1.56665 20.0998 0.42334 18.6939 0.42334ZM11.0001 11.1745C9.8011 11.1745 8.82553 10.1989 8.82553 8.9999C8.82553 7.8009 9.8011 6.82534 11.0001 6.82534C12.1991 6.82534 13.174 7.8009 13.174 8.9999C13.174 10.1989 12.1991 11.1745 11.0001 11.1745ZM1.99385 6.39565H3.9601C4.12029 6.39565 4.25091 6.52628 4.25091 6.68646V11.3127C4.25091 11.4728 4.12029 11.6035 3.9601 11.6035H1.99385V6.39565ZM3.30629 16.339C2.58304 16.339 1.99385 15.7505 1.99385 15.0265V12.841H3.9601C4.80297 12.841 5.48841 12.1555 5.48841 11.3127V6.68646C5.48841 5.84359 4.80297 5.15815 3.9601 5.15815H1.99385V2.97259C1.99385 2.24934 2.58235 1.66015 3.30629 1.66015H10.3813V5.6504C8.79529 5.94328 7.58803 7.32996 7.58803 8.99921C7.58803 10.6685 8.79529 12.0558 10.3813 12.348V16.3383L3.30629 16.339ZM20.0063 11.6042H18.0401C17.8806 11.6042 17.75 11.4735 17.75 11.3133V6.68715C17.75 6.52696 17.8799 6.39634 18.0401 6.39634H20.0063V11.6042ZM20.0063 5.15884H18.0401C17.1972 5.15884 16.5118 5.84428 16.5118 6.68715V11.3133C16.5118 12.1562 17.1972 12.8417 18.0401 12.8417H20.0063V15.0272C20.0063 15.7505 19.4185 16.3397 18.6946 16.3397H11.6188V12.3494C13.2049 12.0565 14.4122 10.6698 14.4122 9.00059C14.4122 7.33134 13.2049 5.94396 11.6188 5.65178V1.66084H18.6946C19.4185 1.66084 20.0063 2.24934 20.0063 2.97328V5.15884Z" fill="#55DB26"/>
</svg>
