<svg width="24" height="24" viewBox="0 0 24 24" fill="none" xmlns="http://www.w3.org/2000/svg">
<path d="M18.71 19.5C17.88 20.74 17 21.95 15.66 21.97C14.32 22 13.89 21.18 12.37 21.18C10.84 21.18 10.37 21.95 9.1 22C7.79 22.05 6.8 20.68 5.96 19.47C4.25 17 2.94 12.45 4.7 9.39C5.57 7.87 7.13 6.91 8.82 6.88C10.1 6.86 11.32 7.75 12.11 7.75C12.89 7.75 14.37 6.68 15.92 6.84C16.57 6.87 18.39 7.1 19.56 8.82C19.47 8.88 17.39 10.19 17.41 12.63C17.44 15.65 20.06 16.66 20.09 16.67C20.06 16.74 19.67 18.11 18.71 19.5ZM13.19 3.5C13.88 2.58 14.34 1.32 14.18 0C13.1 0.05 11.72 0.79 11.01 1.71C10.36 2.54 9.8 3.84 9.98 5.08C11.2 5.18 12.5 4.42 13.19 3.5Z" fill="currentColor"/>
</svg>