<svg width="25" height="25" viewBox="0 0 25 25" fill="none" xmlns="http://www.w3.org/2000/svg">
<path d="M12.1236 1.5634C10.3873 1.57226 8.7699 1.64077 7.29275 1.74653C4.31425 1.96864 1.95113 4.3455 1.74768 7.32515C1.50083 10.7813 1.50083 14.2511 1.74768 17.7072C1.96973 20.6855 4.34647 23.0488 7.32627 23.2523C10.7816 23.4991 14.2529 23.4991 17.7083 23.2523C20.6879 23.0315 23.0496 20.6543 23.2534 17.6737C23.4996 14.2146 23.4984 10.7414 23.2503 7.28242C23.0265 4.30757 20.6514 1.94874 17.6748 1.74653C15.7153 1.6064 13.86 1.55484 12.1236 1.5634ZM12.4897 6.91924C13.7696 6.91924 14.8213 7.96951 14.8213 9.24773C14.8213 10.5259 13.7696 11.5671 12.4897 11.5671C11.2099 11.5671 10.1674 10.5259 10.1674 9.24773C10.1674 7.96951 11.2099 6.91924 12.4897 6.91924ZM12.2884 12.4979C13.5714 12.4713 14.8601 12.7024 16.0756 13.1906C16.0776 13.1906 16.0796 13.1906 16.0815 13.1906C17.2882 13.7057 18.0805 14.8956 18.0805 16.2088C18.0802 17.2311 17.2404 18.0793 16.2189 18.0793H8.77562C7.76164 18.0793 6.93926 17.242 6.92627 16.23C6.84359 15.0448 7.46306 13.9155 8.51619 13.3644C8.52196 13.3591 8.52791 13.354 8.53394 13.349C9.72715 12.8091 11.0054 12.5244 12.2884 12.4979Z" fill="#818181"/>
</svg>
