<svg width="98" height="101" viewBox="0 0 98 101" fill="none" xmlns="http://www.w3.org/2000/svg">
<path d="M31.4984 3.69546C25.2336 6.2354 19.6122 9.96993 14.7918 14.7888C9.97007 19.6091 6.23967 25.2319 3.6983 31.4952C1.24486 37.5463 0 43.9408 0 50.5C0 57.0578 1.24486 63.4523 3.6983 69.5006C6.23967 75.7654 9.97147 81.3881 14.7918 86.207C19.6122 91.0287 25.2322 94.7604 31.4984 97.3004C37.5497 99.7566 43.9428 100.997 50.5021 100.997C57.0613 100.997 63.4531 99.7524 69.5044 97.3004C75.7678 94.7604 81.392 91.0287 86.211 86.207C91.0327 81.3881 94.7645 75.7681 97.3045 69.5006C99.7579 63.4523 101 57.0578 101 50.5C101 43.9408 99.7565 37.5463 97.3045 31.4952C94.7645 25.2319 91.0299 19.6077 86.211 14.7888C81.392 9.96993 75.7734 6.2354 69.5044 3.69546C63.4531 1.24345 57.0613 0 50.5021 0C43.9428 0 37.5497 1.24345 31.4984 3.69546ZM12.6217 71.7587C10.1892 70.2319 7.94787 68.4735 5.96334 66.4025C2.93213 57.8728 2.41855 48.6383 4.4268 39.8728C5.37161 38.0097 6.44621 36.2206 7.66177 34.5068C8.03718 33.9779 8.38468 33.4266 8.78661 32.9131L20.183 39.6564C20.183 39.7458 20.183 39.8434 20.183 39.9425C20.1537 46.0719 20.7761 52.1565 22.0154 58.1533C22.0196 58.1812 22.0238 58.1966 22.0293 58.2217L13.1911 72.0797C12.9985 71.982 12.8073 71.8759 12.6217 71.7587ZM46.5065 95.1861C48.4729 96.1895 50.4951 97.0366 52.5731 97.726C43.7461 98.1098 34.8311 96.0416 26.9502 91.5199L46.0544 94.9237C46.2009 95.0172 46.3502 95.1065 46.5065 95.1861ZM46.4367 91.7376L23.8924 87.7198C21.2548 84.517 18.8823 81.1285 16.8433 77.507C16.3242 76.5859 15.745 75.6914 15.3054 74.7298L24.1353 60.8858C24.3307 60.9347 24.5484 60.9863 24.7954 61.0519C30.3191 62.5298 35.9405 63.5807 41.601 64.404C41.9318 64.4501 42.2081 64.4906 42.444 64.5157L53.0281 82.8158C51.1915 85.3976 49.334 87.9654 47.436 90.5053C47.1206 90.9282 46.7856 91.3343 46.4367 91.7376ZM83.9445 83.942C82.1498 85.7381 80.2448 87.3569 78.2505 88.8C77.9198 86.1568 77.349 83.5666 76.5437 81.0364L87.8368 59.9689C90.9476 58.5524 93.9481 56.9461 96.7337 54.9547C97.0979 54.6965 97.4008 54.4076 97.6352 54.0922C96.8174 64.979 92.2539 75.6342 83.9445 83.942ZM83.4435 56.6196C83.8636 57.4206 84.2781 58.23 84.694 59.0506L73.7861 79.398C73.7233 79.412 73.6632 79.4259 73.6004 79.4343C67.7041 80.5354 61.7603 81.1215 55.7662 81.1495L44.8807 62.3274C46.5749 59.1818 48.2538 56.0237 49.9187 52.8641C51.0492 50.7205 52.16 48.563 53.2695 46.4068L75.7985 44.093C78.5576 48.1401 81.1715 52.2738 83.4435 56.6196ZM78.873 32.4846C77.804 35.3079 76.6596 38.1018 75.5222 40.9013L53.5752 43.1551C53.3128 42.809 53.0407 42.4685 52.7546 42.1433C50.163 39.2085 47.5546 36.2917 44.9504 33.3666C44.9742 33.3373 44.9979 33.315 45.0216 33.2885C43.9707 32.239 42.9171 31.1895 41.8662 30.1373L47.9761 11.7423C48.3975 11.6307 48.8218 11.5372 49.2503 11.4911C52.5718 11.1534 55.8974 10.771 59.2273 10.5784C61.2663 10.464 63.3164 10.3984 65.3902 10.5449L80.5072 27.5834C79.9866 29.2274 79.4787 30.8755 78.873 32.4846ZM83.9445 17.0552C88.1145 21.228 91.3439 25.9897 93.6271 31.0765C90.8024 29.1325 87.7824 27.5331 84.6074 26.2297C84.1134 26.0259 83.6068 25.8459 83.0918 25.6687L68.2121 8.89814C68.3154 8.17384 68.3698 7.44814 68.3921 6.71687C74.0526 9.02095 79.3586 12.4708 83.9445 17.0552ZM35.3558 5.83626C35.4144 5.87953 35.4423 5.91581 35.4758 5.92558C38.8769 7.10065 41.9709 8.83115 44.8876 10.884L39.1797 28.0732C39.1504 28.0816 39.1225 28.09 39.0946 28.1025C37.9265 28.5854 36.736 29.018 35.5861 29.5414C30.848 31.6947 26.2287 34.0798 21.8772 36.9393L10.6134 30.2754C10.6302 29.9238 10.6902 29.5665 10.8102 29.2483C11.5666 27.2331 12.3105 25.2067 13.166 23.232C13.8247 21.7108 14.5755 20.2413 15.3947 18.8053C15.9306 18.2136 16.4861 17.6274 17.0583 17.0552C22.4075 11.7074 28.7295 7.91008 35.4605 5.66461C35.4256 5.71904 35.3893 5.77625 35.3558 5.83626Z" fill="#138A2D"/>
</svg>
