<svg width="24" height="24" viewBox="0 0 24 24" fill="none" xmlns="http://www.w3.org/2000/svg">
<g clip-path="url(#clip0_374_2510)">
<path d="M1.6 15.8001V10.2001H1.2C0.537258 10.2001 0 10.7373 0 11.4001V14.6001C0 15.2628 0.537258 15.8001 1.2 15.8001H1.6Z" fill="#818181"/>
<path d="M20.8 9H19.2C18.7582 9 18.4 9.35817 18.4 9.8V16.2C18.4 16.6418 18.7582 17 19.2 17H20.8C21.2418 17 21.6 16.6418 21.6 16.2V9.8C21.6 9.35817 21.2418 9 20.8 9Z" fill="#818181"/>
<path d="M22.8 10.2001H22.4V15.8001H22.8C23.4627 15.8001 24 15.2628 24 14.6001V11.4001C24 10.7373 23.4627 10.2001 22.8 10.2001Z" fill="#818181"/>
<path d="M4.9 8.20004C5.48379 4.73388 8.48501 2.19587 12 2.19587C15.515 2.19587 18.5162 4.73388 19.1 8.20004H20.7C20.0698 3.87586 16.3619 0.669189 11.992 0.669189C7.62213 0.669189 3.91423 3.87586 3.284 8.20004H4.884H4.9Z" fill="#818181"/>
<path d="M3.2 17H3.6V19C3.6 20.9882 5.21178 22.6 7.2 22.6H8.872C9.0411 23.0783 9.4927 23.3986 10 23.4H14C14.6627 23.4 15.2 22.8627 15.2 22.2C15.2 21.5373 14.6627 21 14 21H10C9.4927 21.0014 9.0411 21.3217 8.872 21.8H7.2C5.6536 21.8 4.4 20.5464 4.4 19V17H4.8C5.24183 17 5.6 16.6418 5.6 16.2V9.8C5.6 9.35817 5.24183 9 4.8 9H3.2C2.75817 9 2.4 9.35817 2.4 9.8V16.2C2.4 16.6418 2.75817 17 3.2 17Z" fill="#818181"/>
</g>
<defs>
<clipPath id="clip0_374_2510">
<rect width="24" height="24" fill="white"/>
</clipPath>
</defs>
</svg>
