<svg width="14" height="14" viewBox="0 0 14 14" fill="none" xmlns="http://www.w3.org/2000/svg">
<path d="M6.99999 0C4.20423 0 1.92972 2.27451 1.92972 5.07024C1.92972 8.53983 6.46711 13.6334 6.6603 13.8485C6.84175 14.0506 7.15855 14.0503 7.33968 13.8485C7.53286 13.6334 12.0703 8.53983 12.0703 5.07024C12.0702 2.27451 9.79572 0 6.99999 0ZM6.99999 7.62122C5.59337 7.62122 4.44903 6.47686 4.44903 5.07024C4.44903 3.66362 5.5934 2.51929 6.99999 2.51929C8.40658 2.51929 9.55091 3.66365 9.55091 5.07027C9.55091 6.47689 8.40658 7.62122 6.99999 7.62122Z" fill="white"/>
</svg>
